<svg width="47" height="47" viewBox="0 0 47 47" fill="none" xmlns="http://www.w3.org/2000/svg">
<path d="M38.7361 15.0694H29.9861C29.4704 15.0694 28.9758 14.8646 28.6112 14.4999C28.2465 14.1353 28.0417 13.6407 28.0417 13.125V4.375M38.7361 15.0694V40.3472C38.7361 40.8629 38.5313 41.3575 38.1666 41.7222C37.8019 42.0868 37.3074 42.2917 36.7917 42.2917H10.5417C10.026 42.2917 9.5314 42.0868 9.16674 41.7222C8.80209 41.3575 8.59723 40.8629 8.59723 40.3472V6.31944C8.59723 5.80375 8.80209 5.30917 9.16674 4.94451C9.5314 4.57986 10.026 4.375 10.5417 4.375H28.0417M38.7361 15.0694L28.0417 4.375" stroke="#F1EFEF" stroke-width="1.33333" stroke-linecap="round" stroke-linejoin="round"/>
<path d="M38.7361 15.0694H29.9861C29.4704 15.0694 28.9758 14.8646 28.6112 14.4999C28.2465 14.1353 28.0417 13.6407 28.0417 13.125V4.375M38.7361 15.0694V40.3472C38.7361 40.8629 38.5313 41.3575 38.1666 41.7222C37.8019 42.0868 37.3074 42.2917 36.7917 42.2917H10.5417C10.026 42.2917 9.5314 42.0868 9.16674 41.7222C8.80209 41.3575 8.59723 40.8629 8.59723 40.3472V6.31944C8.59723 5.80375 8.80209 5.30917 9.16674 4.94451C9.5314 4.57986 10.026 4.375 10.5417 4.375H28.0417M38.7361 15.0694L28.0417 4.375M14.9167 21.3889H32.4167M14.9167 26.7361H32.4167M14.9167 32.0833H25.6111" stroke="#F1EFEF" stroke-width="1.33333" stroke-linecap="round" stroke-linejoin="round"/>
</svg>
