<svg width="107" height="86" viewBox="0 0 107 86" fill="none" xmlns="http://www.w3.org/2000/svg">
<g id="Group">
<g id="Group_2">
<g id="Group_3">
<path id="Vector" d="M62.9409 65.4493C66.8458 65.5199 75.3322 65.4571 75.3322 65.4571V56.5398C75.3322 56.5398 66.8464 56.6006 62.9409 56.5308V65.4493Z" stroke="black" stroke-width="1.29386" stroke-miterlimit="10" stroke-linecap="round" stroke-linejoin="round"/>
<path id="Vector_2" d="M69.4033 56.5566V65.483" stroke="black" stroke-width="1.29386" stroke-miterlimit="10" stroke-linecap="round" stroke-linejoin="round"/>
<path id="Vector_3" d="M63.0083 61.0198H75.2702" stroke="black" stroke-width="1.29386" stroke-miterlimit="10" stroke-linecap="round" stroke-linejoin="round"/>
</g>
<g id="Group_4">
<path id="Vector_4" d="M30.429 65.4493C34.3338 65.5199 42.8203 65.4571 42.8203 65.4571V56.5398C42.8203 56.5398 34.3338 56.6006 30.429 56.5308V65.4493Z" stroke="black" stroke-width="1.29386" stroke-miterlimit="10" stroke-linecap="round" stroke-linejoin="round"/>
<path id="Vector_5" d="M36.8911 56.5566V65.483" stroke="black" stroke-width="1.29386" stroke-miterlimit="10" stroke-linecap="round" stroke-linejoin="round"/>
<path id="Vector_6" d="M30.4961 61.0198H42.758" stroke="black" stroke-width="1.29386" stroke-miterlimit="10" stroke-linecap="round" stroke-linejoin="round"/>
</g>
<g id="Group_5">
<path id="Vector_7" d="M59.7379 31.73H45.8276V33.63H59.7379V31.73Z" stroke="black" stroke-width="1.29386" stroke-miterlimit="10" stroke-linecap="round" stroke-linejoin="round"/>
<path id="Vector_8" d="M58.1685 31.73C58.2539 26.9964 58.1776 16.7102 58.1776 16.7102H47.3687C47.3687 16.7102 47.4424 26.9964 47.3577 31.73" stroke="black" stroke-width="1.29386" stroke-miterlimit="10" stroke-linecap="round" stroke-linejoin="round"/>
<path id="Vector_9" d="M47.3889 23.897H58.2088" stroke="black" stroke-width="1.29386" stroke-miterlimit="10" stroke-linecap="round" stroke-linejoin="round"/>
<path id="Vector_10" d="M52.7988 31.6484V16.7852" stroke="black" stroke-width="1.29386" stroke-miterlimit="10" stroke-linecap="round" stroke-linejoin="round"/>
</g>
<g id="Group_6">
<g id="Group_7">
<g id="Group_8">
<g id="Group_9">
<path id="Vector_11" d="M52.7828 1C52.7828 1 16.338 32.4214 7.6853 41.9656C8.21126 43.0919 8.73656 44.2182 9.26187 45.3445C22.7025 33.551 52.7828 7.07079 52.7828 7.07079V1Z" stroke="black" stroke-width="1.29386" stroke-miterlimit="10" stroke-linecap="round" stroke-linejoin="round"/>
<path id="Vector_12" d="M52.783 1C52.783 1 89.2278 32.4214 97.8805 41.9656C97.3551 43.0919 96.8292 44.2182 96.3039 45.3445C82.8633 33.551 52.783 7.07079 52.783 7.07079V1Z" stroke="black" stroke-width="1.29386" stroke-miterlimit="10" stroke-linecap="round" stroke-linejoin="round"/>
<path id="Vector_13" d="M15.7344 39.729C15.6975 54.8115 15.6238 84.6357 15.6238 84.6357L89.7128 84.853L89.9088 39.729" stroke="black" stroke-width="1.29386" stroke-miterlimit="10" stroke-linecap="round" stroke-linejoin="round"/>
</g>
</g>
<path id="Vector_14" d="M1 84.636L106 84.8534" stroke="black" stroke-width="1.29386" stroke-miterlimit="10" stroke-linecap="round" stroke-linejoin="round"/>
</g>
</g>
<path id="Vector_15" d="M15.7344 39.7292H89.9094" stroke="black" stroke-width="1.29386" stroke-miterlimit="10" stroke-linecap="round" stroke-linejoin="round"/>
<path id="Vector_16" d="M15.7344 47.7058H89.8752" stroke="black" stroke-width="1.29386" stroke-miterlimit="10" stroke-linecap="round" stroke-linejoin="round"/>
<path id="Vector_17" d="M21.0301 39.7292H15.7344V47.7059H21.0301V39.7292Z" stroke="black" stroke-width="1.29386" stroke-miterlimit="10" stroke-linecap="round" stroke-linejoin="round"/>
<path id="Vector_18" d="M26.326 39.7292H21.0303V47.7059H26.326V39.7292Z" stroke="black" stroke-width="1.29386" stroke-miterlimit="10" stroke-linecap="round" stroke-linejoin="round"/>
<path id="Vector_19" d="M26.326 50.3188H21.0303V84.6352H26.326V50.3188Z" stroke="black" stroke-width="1.29386" stroke-miterlimit="10" stroke-linecap="round" stroke-linejoin="round"/>
<path id="Vector_20" d="M84.5795 50.3188H79.2837V84.6352H84.5795V50.3188Z" stroke="black" stroke-width="1.29386" stroke-miterlimit="10" stroke-linecap="round" stroke-linejoin="round"/>
<path id="Vector_21" d="M31.6217 39.7292H26.3259V47.7059H31.6217V39.7292Z" stroke="black" stroke-width="1.29386" stroke-miterlimit="10" stroke-linecap="round" stroke-linejoin="round"/>
<path id="Vector_22" d="M36.9176 39.7292H31.6218V47.7059H36.9176V39.7292Z" stroke="black" stroke-width="1.29386" stroke-miterlimit="10" stroke-linecap="round" stroke-linejoin="round"/>
<path id="Vector_23" d="M42.2132 39.7292H36.9175V47.7059H42.2132V39.7292Z" stroke="black" stroke-width="1.29386" stroke-miterlimit="10" stroke-linecap="round" stroke-linejoin="round"/>
<path id="Vector_24" d="M47.5091 39.7292H42.2134V47.7059H47.5091V39.7292Z" stroke="black" stroke-width="1.29386" stroke-miterlimit="10" stroke-linecap="round" stroke-linejoin="round"/>
<path id="Vector_25" d="M52.805 39.7292H47.5093V47.7059H52.805V39.7292Z" stroke="black" stroke-width="1.29386" stroke-miterlimit="10" stroke-linecap="round" stroke-linejoin="round"/>
<path id="Vector_26" d="M58.1007 39.7292H52.8049V47.7059H58.1007V39.7292Z" stroke="black" stroke-width="1.29386" stroke-miterlimit="10" stroke-linecap="round" stroke-linejoin="round"/>
<path id="Vector_27" d="M63.3964 39.7292H58.1006V47.7059H63.3964V39.7292Z" stroke="black" stroke-width="1.29386" stroke-miterlimit="10" stroke-linecap="round" stroke-linejoin="round"/>
<path id="Vector_28" d="M68.6922 39.7292H63.3965V47.7059H68.6922V39.7292Z" stroke="black" stroke-width="1.29386" stroke-miterlimit="10" stroke-linecap="round" stroke-linejoin="round"/>
<path id="Vector_29" d="M73.9879 39.7292H68.6921V47.7059H73.9879V39.7292Z" stroke="black" stroke-width="1.29386" stroke-miterlimit="10" stroke-linecap="round" stroke-linejoin="round"/>
<path id="Vector_30" d="M79.2838 39.7292H73.988V47.7059H79.2838V39.7292Z" stroke="black" stroke-width="1.29386" stroke-miterlimit="10" stroke-linecap="round" stroke-linejoin="round"/>
<path id="Vector_31" d="M84.5795 39.7292H79.2837V47.7059H84.5795V39.7292Z" stroke="black" stroke-width="1.29386" stroke-miterlimit="10" stroke-linecap="round" stroke-linejoin="round"/>
<path id="Vector_32" d="M89.8754 39.7292H84.5796V47.7059H89.8754V39.7292Z" stroke="black" stroke-width="1.29386" stroke-miterlimit="10" stroke-linecap="round" stroke-linejoin="round"/>
<g id="Group_10">
<g id="Group_11">
<path id="Vector_33" d="M58.9164 79.7599C59.0128 72.4813 58.9267 56.5312 58.9267 56.5312H46.6939C46.6939 56.5312 46.778 72.601 46.6816 79.8803" stroke="black" stroke-width="1.29386" stroke-miterlimit="10" stroke-linecap="round" stroke-linejoin="round"/>
<g id="Group_12">
<path id="Vector_34" d="M56.7862 58.4443H54.0483V65.1407H56.7862V58.4443Z" stroke="black" stroke-width="1.29386" stroke-miterlimit="10" stroke-linecap="round" stroke-linejoin="round"/>
<path id="Vector_35" d="M51.5964 58.4443H48.8586V65.1407H51.5964V58.4443Z" stroke="black" stroke-width="1.29386" stroke-miterlimit="10" stroke-linecap="round" stroke-linejoin="round"/>
</g>
<g id="Group_13">
<path id="Vector_36" d="M56.7862 67.033H54.0483V73.73H56.7862V67.033Z" stroke="black" stroke-width="1.29386" stroke-miterlimit="10" stroke-linecap="round" stroke-linejoin="round"/>
<path id="Vector_37" d="M51.5964 67.033H48.8586V73.73H51.5964V67.033Z" stroke="black" stroke-width="1.29386" stroke-miterlimit="10" stroke-linecap="round" stroke-linejoin="round"/>
</g>
<path id="Vector_38" d="M56.7861 75.4922H48.8586V78.1278H56.7861V75.4922Z" stroke="black" stroke-width="1.29386" stroke-miterlimit="10" stroke-linecap="round" stroke-linejoin="round"/>
</g>
<path id="Vector_39" d="M62.6039 82.0002H43.0408V84.6358H62.6039V82.0002Z" stroke="black" stroke-width="1.29386" stroke-miterlimit="10" stroke-linecap="round" stroke-linejoin="round"/>
<path id="Vector_40" d="M60.693 79.8796H44.9519V82.0003H60.693V79.8796Z" stroke="black" stroke-width="1.29386" stroke-miterlimit="10" stroke-linecap="round" stroke-linejoin="round"/>
</g>
<path id="Vector_41" d="M15.7344 50.3188H89.8635" stroke="black" stroke-width="1.29386" stroke-miterlimit="10" stroke-linecap="round" stroke-linejoin="round"/>
<path id="Vector_42" d="M18.5537 37.1829H87.0125" stroke="black" stroke-width="1.29386" stroke-miterlimit="10" stroke-linecap="round" stroke-linejoin="round"/>
</g>
<path id="Vector_43" d="M7.86646 42.0098C8.91966 42.7292 9.97286 43.4479 11.0254 44.1673" stroke="black" stroke-width="0.64693" stroke-miterlimit="10" stroke-linecap="round" stroke-linejoin="round"/>
<path id="Vector_44" d="M9.42505 40.4727C10.2926 41.3816 11.2436 42.2103 12.2618 42.9459" stroke="black" stroke-width="0.64693" stroke-miterlimit="10" stroke-linecap="round" stroke-linejoin="round"/>
<path id="Vector_45" d="M10.7344 39.0874C11.5146 40.0267 12.4604 40.8276 13.5149 41.4435" stroke="black" stroke-width="0.64693" stroke-miterlimit="10" stroke-linecap="round" stroke-linejoin="round"/>
<path id="Vector_46" d="M12.0806 37.8416C12.941 38.5428 13.7516 39.3056 14.5033 40.122" stroke="black" stroke-width="0.64693" stroke-miterlimit="10" stroke-linecap="round" stroke-linejoin="round"/>
<path id="Vector_47" d="M13.3577 36.2622C14.3992 36.9447 15.389 37.7062 16.3154 38.5375" stroke="black" stroke-width="0.64693" stroke-miterlimit="10" stroke-linecap="round" stroke-linejoin="round"/>
<path id="Vector_48" d="M15.2112 34.6624C16.2599 35.5299 17.3409 36.3599 18.451 37.1485" stroke="black" stroke-width="0.64693" stroke-miterlimit="10" stroke-linecap="round" stroke-linejoin="round"/>
<path id="Vector_49" d="M17.0593 33.0808C17.8324 33.6773 18.6048 34.2744 19.3779 34.8709C19.68 35.1038 19.9977 35.3444 20.3736 35.4104" stroke="black" stroke-width="0.64693" stroke-miterlimit="10" stroke-linecap="round" stroke-linejoin="round"/>
<path id="Vector_50" d="M18.7434 31.1799C19.8762 32.1303 21.0588 33.0218 22.2841 33.8498" stroke="black" stroke-width="0.64693" stroke-miterlimit="10" stroke-linecap="round" stroke-linejoin="round"/>
<path id="Vector_51" d="M20.6401 29.6487C21.804 30.533 22.9684 31.4167 24.1329 32.3011" stroke="black" stroke-width="0.64693" stroke-miterlimit="10" stroke-linecap="round" stroke-linejoin="round"/>
<path id="Vector_52" d="M22.3506 28.1433C23.3423 29.1241 24.5262 29.9094 25.8149 30.4419" stroke="black" stroke-width="0.64693" stroke-miterlimit="10" stroke-linecap="round" stroke-linejoin="round"/>
<path id="Vector_53" d="M24.2068 26.6042C25.3868 27.5449 26.7033 28.3141 28.1026 28.8802" stroke="black" stroke-width="0.64693" stroke-miterlimit="10" stroke-linecap="round" stroke-linejoin="round"/>
<path id="Vector_54" d="M25.7095 24.9832C26.8507 26.0267 28.1892 26.8541 29.6325 27.4091" stroke="black" stroke-width="0.64693" stroke-miterlimit="10" stroke-linecap="round" stroke-linejoin="round"/>
<path id="Vector_55" d="M27.6692 23.5457C28.9139 24.3679 30.1372 25.2219 31.3373 26.1069" stroke="black" stroke-width="0.64693" stroke-miterlimit="10" stroke-linecap="round" stroke-linejoin="round"/>
<path id="Vector_56" d="M29.7307 21.5984C30.5698 22.7519 31.5971 23.7675 32.7596 24.5937" stroke="black" stroke-width="0.64693" stroke-miterlimit="10" stroke-linecap="round" stroke-linejoin="round"/>
<path id="Vector_57" d="M31.5164 19.8032C32.4583 20.9729 33.4009 22.1425 34.3428 23.3122" stroke="black" stroke-width="0.64693" stroke-miterlimit="10" stroke-linecap="round" stroke-linejoin="round"/>
<path id="Vector_58" d="M33.2793 18.3999C33.9942 19.598 34.8572 20.7081 35.8424 21.696" stroke="black" stroke-width="0.64693" stroke-miterlimit="10" stroke-linecap="round" stroke-linejoin="round"/>
<path id="Vector_59" d="M35.0466 16.8149C35.9802 17.9154 36.913 19.0158 37.8465 20.1162" stroke="black" stroke-width="0.64693" stroke-miterlimit="10" stroke-linecap="round" stroke-linejoin="round"/>
<path id="Vector_60" d="M37.5327 14.9001C38.0166 16.2296 38.7399 17.4723 39.6559 18.5508" stroke="black" stroke-width="0.64693" stroke-miterlimit="10" stroke-linecap="round" stroke-linejoin="round"/>
<path id="Vector_61" d="M41.228 17.1914C40.5617 15.7281 39.8953 14.2654 39.229 12.802" stroke="black" stroke-width="0.64693" stroke-miterlimit="10" stroke-linecap="round" stroke-linejoin="round"/>
<path id="Vector_62" d="M41.3445 11.2488C41.8918 12.7361 42.498 14.2014 43.1591 15.6414" stroke="black" stroke-width="0.64693" stroke-miterlimit="10" stroke-linecap="round" stroke-linejoin="round"/>
<path id="Vector_63" d="M43.2263 9.57007C43.8286 10.9784 44.4303 12.3875 45.0325 13.7958" stroke="black" stroke-width="0.64693" stroke-miterlimit="10" stroke-linecap="round" stroke-linejoin="round"/>
<path id="Vector_64" d="M47.1857 12.0736C46.6164 10.5209 46.0471 8.96767 45.4778 7.41504" stroke="black" stroke-width="0.64693" stroke-miterlimit="10" stroke-linecap="round" stroke-linejoin="round"/>
<path id="Vector_65" d="M49.3271 9.99308C48.6899 8.52454 48.052 7.05667 47.4148 5.58813" stroke="black" stroke-width="0.64693" stroke-miterlimit="10" stroke-linecap="round" stroke-linejoin="round"/>
<path id="Vector_66" d="M55.5071 9.2964C56.5131 8.14099 57.5701 7.03085 58.6751 5.96924" stroke="black" stroke-width="0.64693" stroke-miterlimit="10" stroke-linecap="round" stroke-linejoin="round"/>
<path id="Vector_67" d="M57.2073 11.1945C58.2566 9.98736 59.3059 8.78017 60.3546 7.573" stroke="black" stroke-width="0.64693" stroke-miterlimit="10" stroke-linecap="round" stroke-linejoin="round"/>
<path id="Vector_68" d="M59.1067 12.4495C60.2239 11.4532 61.2196 10.3211 62.0645 9.08545" stroke="black" stroke-width="0.64693" stroke-miterlimit="10" stroke-linecap="round" stroke-linejoin="round"/>
<path id="Vector_69" d="M61.072 14.2653C62.0974 13.0815 63.1228 11.8982 64.1482 10.7144" stroke="black" stroke-width="0.64693" stroke-miterlimit="10" stroke-linecap="round" stroke-linejoin="round"/>
<path id="Vector_70" d="M63.3796 16.4249C64.3313 15.2326 65.248 14.0125 66.1271 12.7659" stroke="black" stroke-width="0.64693" stroke-miterlimit="10" stroke-linecap="round" stroke-linejoin="round"/>
<path id="Vector_71" d="M65.7454 18.1184C66.6504 16.9487 67.5555 15.7791 68.4605 14.6101" stroke="black" stroke-width="0.64693" stroke-miterlimit="10" stroke-linecap="round" stroke-linejoin="round"/>
<path id="Vector_72" d="M67.7146 19.9803C68.5886 18.722 69.5202 17.5039 70.5055 16.3303" stroke="black" stroke-width="0.64693" stroke-miterlimit="10" stroke-linecap="round" stroke-linejoin="round"/>
<path id="Vector_73" d="M69.8728 21.8488C70.783 20.617 71.6939 19.3852 72.6041 18.1528" stroke="black" stroke-width="0.64693" stroke-miterlimit="10" stroke-linecap="round" stroke-linejoin="round"/>
<path id="Vector_74" d="M71.7734 23.8141C72.6002 22.5778 73.4548 21.3603 74.3372 20.1628" stroke="black" stroke-width="0.64693" stroke-miterlimit="10" stroke-linecap="round" stroke-linejoin="round"/>
<path id="Vector_75" d="M73.9343 25.628C74.7889 24.3665 75.6429 23.105 76.4975 21.8435" stroke="black" stroke-width="0.64693" stroke-miterlimit="10" stroke-linecap="round" stroke-linejoin="round"/>
<path id="Vector_76" d="M76.0315 27.2448C76.7768 25.927 77.6462 24.6797 78.6257 23.5249" stroke="black" stroke-width="0.64693" stroke-miterlimit="10" stroke-linecap="round" stroke-linejoin="round"/>
<path id="Vector_77" d="M77.8813 29.1545C78.6318 27.7953 79.4851 26.4931 80.4315 25.262" stroke="black" stroke-width="0.64693" stroke-miterlimit="10" stroke-linecap="round" stroke-linejoin="round"/>
<path id="Vector_78" d="M80.0808 31.0616C80.9166 29.7212 81.7525 28.3807 82.5877 27.0403" stroke="black" stroke-width="0.64693" stroke-miterlimit="10" stroke-linecap="round" stroke-linejoin="round"/>
<path id="Vector_79" d="M82.1792 32.8995C82.9846 31.6509 83.7487 30.3745 84.4674 29.0742" stroke="black" stroke-width="0.64693" stroke-miterlimit="10" stroke-linecap="round" stroke-linejoin="round"/>
<path id="Vector_80" d="M84.4224 34.9142C85.1747 33.4651 85.7499 32.3576 86.5022 30.9084" stroke="black" stroke-width="0.64693" stroke-miterlimit="10" stroke-linecap="round" stroke-linejoin="round"/>
<path id="Vector_81" d="M86.436 36.4688C87.2078 35.2396 87.8308 33.9173 88.2869 32.5393" stroke="black" stroke-width="0.64693" stroke-miterlimit="10" stroke-linecap="round" stroke-linejoin="round"/>
<path id="Vector_82" d="M88.0276 38.1209C88.747 36.9176 89.4664 35.7144 90.1851 34.5117" stroke="black" stroke-width="0.64693" stroke-miterlimit="10" stroke-linecap="round" stroke-linejoin="round"/>
<path id="Vector_83" d="M90.2219 39.5424C90.8902 38.4044 91.5585 37.2671 92.2261 36.1292" stroke="black" stroke-width="0.64693" stroke-miterlimit="10" stroke-linecap="round" stroke-linejoin="round"/>
<path id="Vector_84" d="M92.166 41.4501C92.7819 40.2009 93.5285 39.0163 94.3902 37.9224" stroke="black" stroke-width="0.64693" stroke-miterlimit="10" stroke-linecap="round" stroke-linejoin="round"/>
<path id="Vector_85" d="M94.427 43.1405C94.9724 42.044 95.5184 40.9481 96.0637 39.8516" stroke="black" stroke-width="0.64693" stroke-miterlimit="10" stroke-linecap="round" stroke-linejoin="round"/>
<path id="Vector_86" d="M17.9985 39.7247C19.02 39.0357 19.9814 38.2568 20.8664 37.3997" stroke="black" stroke-width="0.64693" stroke-miterlimit="10" stroke-linecap="round" stroke-linejoin="round"/>
<path id="Vector_87" d="M21.1848 39.6243C22.0918 38.85 22.9619 38.0329 23.7926 37.177" stroke="black" stroke-width="0.64693" stroke-miterlimit="10" stroke-linecap="round" stroke-linejoin="round"/>
<path id="Vector_88" d="M23.9744 39.7021C24.6595 38.8702 25.4144 38.0964 26.2289 37.3906" stroke="black" stroke-width="0.64693" stroke-miterlimit="10" stroke-linecap="round" stroke-linejoin="round"/>
<path id="Vector_89" d="M26.7349 39.6989C27.4885 38.8786 28.2422 38.0576 28.9959 37.2373" stroke="black" stroke-width="0.64693" stroke-miterlimit="10" stroke-linecap="round" stroke-linejoin="round"/>
<path id="Vector_90" d="M29.5386 39.548C30.2405 38.7206 30.9424 37.8938 31.6443 37.0664" stroke="black" stroke-width="0.64693" stroke-miterlimit="10" stroke-linecap="round" stroke-linejoin="round"/>
<path id="Vector_91" d="M32.1406 39.6989C32.7494 38.8799 33.3582 38.0602 33.9663 37.2412" stroke="black" stroke-width="0.64693" stroke-miterlimit="10" stroke-linecap="round" stroke-linejoin="round"/>
<path id="Vector_92" d="M34.9897 39.3817C35.5235 38.6287 36.0934 37.9016 36.697 37.2029" stroke="black" stroke-width="0.64693" stroke-miterlimit="10" stroke-linecap="round" stroke-linejoin="round"/>
<path id="Vector_93" d="M37.3582 39.4219C37.9359 38.7329 38.5129 38.044 39.0906 37.355" stroke="black" stroke-width="0.64693" stroke-miterlimit="10" stroke-linecap="round" stroke-linejoin="round"/>
<path id="Vector_94" d="M40.0364 39.5274C40.561 38.7466 41.1323 37.9968 41.7449 37.2832" stroke="black" stroke-width="0.64693" stroke-miterlimit="10" stroke-linecap="round" stroke-linejoin="round"/>
<path id="Vector_95" d="M42.7549 39.5021C43.2782 38.8119 43.8023 38.1209 44.3256 37.4307" stroke="black" stroke-width="0.64693" stroke-miterlimit="10" stroke-linecap="round" stroke-linejoin="round"/>
<path id="Vector_96" d="M45.2986 39.4258C45.7262 38.7666 46.1939 38.1332 46.6979 37.5303" stroke="black" stroke-width="0.64693" stroke-miterlimit="10" stroke-linecap="round" stroke-linejoin="round"/>
<path id="Vector_97" d="M47.5862 39.3462C48.1503 38.6442 48.7144 37.9417 49.2792 37.2397" stroke="black" stroke-width="0.64693" stroke-miterlimit="10" stroke-linecap="round" stroke-linejoin="round"/>
<path id="Vector_98" d="M49.7993 39.3708C50.4152 38.6876 51.0007 37.9779 51.5531 37.2437" stroke="black" stroke-width="0.64693" stroke-miterlimit="10" stroke-linecap="round" stroke-linejoin="round"/>
<path id="Vector_99" d="M51.9812 39.4367C52.6456 38.6604 53.3093 37.8841 53.9737 37.1084" stroke="black" stroke-width="0.64693" stroke-miterlimit="10" stroke-linecap="round" stroke-linejoin="round"/>
<path id="Vector_100" d="M54.1123 39.6955C54.9216 38.9476 55.6902 38.1564 56.4154 37.3264" stroke="black" stroke-width="0.64693" stroke-miterlimit="10" stroke-linecap="round" stroke-linejoin="round"/>
<path id="Vector_101" d="M56.8242 39.8709C57.532 39.0623 58.2404 38.2536 58.9487 37.4456" stroke="black" stroke-width="0.64693" stroke-miterlimit="10" stroke-linecap="round" stroke-linejoin="round"/>
<path id="Vector_102" d="M60.0737 39.495C60.4813 38.7575 60.9988 38.0808 61.6044 37.4954" stroke="black" stroke-width="0.64693" stroke-miterlimit="10" stroke-linecap="round" stroke-linejoin="round"/>
<path id="Vector_103" d="M62.3813 39.6353C62.9733 38.8693 63.5659 38.1034 64.1585 37.3374" stroke="black" stroke-width="0.64693" stroke-miterlimit="10" stroke-linecap="round" stroke-linejoin="round"/>
<path id="Vector_104" d="M65.1128 39.689C65.6685 38.9088 66.2721 38.1629 66.9184 37.4558" stroke="black" stroke-width="0.64693" stroke-miterlimit="10" stroke-linecap="round" stroke-linejoin="round"/>
<path id="Vector_105" d="M67.6475 39.9174C68.4451 39.0066 69.2428 38.0957 70.0411 37.1848" stroke="black" stroke-width="0.64693" stroke-miterlimit="10" stroke-linecap="round" stroke-linejoin="round"/>
<path id="Vector_106" d="M70.27 39.5998C71.0826 38.7853 71.8945 37.9702 72.707 37.155" stroke="black" stroke-width="0.64693" stroke-miterlimit="10" stroke-linecap="round" stroke-linejoin="round"/>
<path id="Vector_107" d="M72.998 39.5467C73.8449 38.7497 74.6458 37.9035 75.3949 37.0146" stroke="black" stroke-width="0.64693" stroke-miterlimit="10" stroke-linecap="round" stroke-linejoin="round"/>
<path id="Vector_108" d="M76.0342 39.5216C76.6759 38.7155 77.3177 37.9101 77.9594 37.104" stroke="black" stroke-width="0.64693" stroke-miterlimit="10" stroke-linecap="round" stroke-linejoin="round"/>
<path id="Vector_109" d="M78.4194 39.4912C79.2029 38.7763 79.9371 38.0071 80.6145 37.1907" stroke="black" stroke-width="0.64693" stroke-miterlimit="10" stroke-linecap="round" stroke-linejoin="round"/>
<path id="Vector_110" d="M81.0771 39.5597C81.7461 38.7879 82.3827 37.9883 82.9843 37.1628" stroke="black" stroke-width="0.64693" stroke-miterlimit="10" stroke-linecap="round" stroke-linejoin="round"/>
<path id="Vector_111" d="M83.5845 39.4943C84.2463 38.7516 84.9081 38.0083 85.5692 37.2656" stroke="black" stroke-width="0.64693" stroke-miterlimit="10" stroke-linecap="round" stroke-linejoin="round"/>
<path id="Vector_112" d="M86.2737 39.5422C86.7472 38.9484 87.2214 38.3551 87.6956 37.7612" stroke="black" stroke-width="0.64693" stroke-miterlimit="10" stroke-linecap="round" stroke-linejoin="round"/>
<path id="Vector_113" d="M17.1326 50.2689C17.817 49.3606 18.5778 48.5099 19.4039 47.7278" stroke="black" stroke-width="0.64693" stroke-miterlimit="10" stroke-linecap="round" stroke-linejoin="round"/>
<path id="Vector_114" d="M20.0554 49.9895C20.6461 49.2734 21.2361 48.5572 21.8267 47.8411" stroke="black" stroke-width="0.64693" stroke-miterlimit="10" stroke-linecap="round" stroke-linejoin="round"/>
<path id="Vector_115" d="M22.3765 50.1946C23.0861 49.4526 23.7525 48.6698 24.3716 47.8508" stroke="black" stroke-width="0.64693" stroke-miterlimit="10" stroke-linecap="round" stroke-linejoin="round"/>
<path id="Vector_116" d="M25.0891 49.9683C25.661 49.1952 26.2756 48.4538 26.9296 47.7493" stroke="black" stroke-width="0.64693" stroke-miterlimit="10" stroke-linecap="round" stroke-linejoin="round"/>
<path id="Vector_117" d="M27.7305 50.1253C28.3852 49.4124 28.9887 48.6529 29.5354 47.8533" stroke="black" stroke-width="0.64693" stroke-miterlimit="10" stroke-linecap="round" stroke-linejoin="round"/>
<path id="Vector_118" d="M30.1301 50.1842C30.6833 49.4693 31.237 48.7551 31.7901 48.0403" stroke="black" stroke-width="0.64693" stroke-miterlimit="10" stroke-linecap="round" stroke-linejoin="round"/>
<path id="Vector_119" d="M32.2705 50.2935C32.9498 49.4053 33.6297 48.5164 34.3096 47.6282" stroke="black" stroke-width="0.64693" stroke-miterlimit="10" stroke-linecap="round" stroke-linejoin="round"/>
<path id="Vector_120" d="M34.9607 50.2161C35.5287 49.5122 36.0967 48.8084 36.6641 48.1045" stroke="black" stroke-width="0.64693" stroke-miterlimit="10" stroke-linecap="round" stroke-linejoin="round"/>
<path id="Vector_121" d="M37.4194 50.2975C38.1149 49.4526 38.8097 48.6083 39.5051 47.7634" stroke="black" stroke-width="0.64693" stroke-miterlimit="10" stroke-linecap="round" stroke-linejoin="round"/>
<path id="Vector_122" d="M40.0674 50.2497C40.7007 49.355 41.3852 48.4965 42.1162 47.6794" stroke="black" stroke-width="0.64693" stroke-miterlimit="10" stroke-linecap="round" stroke-linejoin="round"/>
<path id="Vector_123" d="M42.7883 50.2922C43.4657 49.4311 44.1437 48.57 44.821 47.709" stroke="black" stroke-width="0.64693" stroke-miterlimit="10" stroke-linecap="round" stroke-linejoin="round"/>
<path id="Vector_124" d="M45.5437 50.3407C46.2062 49.5152 46.868 48.6897 47.5304 47.8643" stroke="black" stroke-width="0.64693" stroke-miterlimit="10" stroke-linecap="round" stroke-linejoin="round"/>
<path id="Vector_125" d="M48.6729 50.4514C49.2292 49.5722 49.7849 48.6931 50.3413 47.8132" stroke="black" stroke-width="0.64693" stroke-miterlimit="10" stroke-linecap="round" stroke-linejoin="round"/>
<path id="Vector_126" d="M51.3855 50.4928C52.1579 49.6706 52.8489 48.7713 53.444 47.8132" stroke="black" stroke-width="0.64693" stroke-miterlimit="10" stroke-linecap="round" stroke-linejoin="round"/>
<path id="Vector_127" d="M53.8606 50.3778C54.5987 49.4727 55.3369 48.5677 56.075 47.6626" stroke="black" stroke-width="0.64693" stroke-miterlimit="10" stroke-linecap="round" stroke-linejoin="round"/>
<path id="Vector_128" d="M56.4246 50.1609C57.0197 49.404 57.6149 48.6478 58.2101 47.8909" stroke="black" stroke-width="0.64693" stroke-miterlimit="10" stroke-linecap="round" stroke-linejoin="round"/>
<path id="Vector_129" d="M58.9675 50.1591C59.4935 49.3407 60.0841 48.5644 60.733 47.8398" stroke="black" stroke-width="0.64693" stroke-miterlimit="10" stroke-linecap="round" stroke-linejoin="round"/>
<path id="Vector_130" d="M61.2454 50.3778C61.8606 49.5167 62.4752 48.655 63.0904 47.7939" stroke="black" stroke-width="0.64693" stroke-miterlimit="10" stroke-linecap="round" stroke-linejoin="round"/>
<path id="Vector_131" d="M63.8667 50.1364C64.3978 49.3724 64.929 48.609 65.4594 47.845" stroke="black" stroke-width="0.64693" stroke-miterlimit="10" stroke-linecap="round" stroke-linejoin="round"/>
<path id="Vector_132" d="M65.9351 50.2736C66.5548 49.4423 67.1739 48.6104 67.7937 47.7791" stroke="black" stroke-width="0.64693" stroke-miterlimit="10" stroke-linecap="round" stroke-linejoin="round"/>
<path id="Vector_133" d="M68.3965 50.1125C68.9755 49.3439 69.5538 48.5747 70.1328 47.8062" stroke="black" stroke-width="0.64693" stroke-miterlimit="10" stroke-linecap="round" stroke-linejoin="round"/>
<path id="Vector_134" d="M70.7563 50.2664C71.433 49.4907 72.0625 48.673 72.6389 47.8203" stroke="black" stroke-width="0.64693" stroke-miterlimit="10" stroke-linecap="round" stroke-linejoin="round"/>
<path id="Vector_135" d="M73.3254 50.3149C73.9866 49.4486 74.6478 48.583 75.3083 47.7168" stroke="black" stroke-width="0.64693" stroke-miterlimit="10" stroke-linecap="round" stroke-linejoin="round"/>
<path id="Vector_136" d="M75.8079 50.0199C76.3933 49.2474 76.9782 48.4743 77.5636 47.7019" stroke="black" stroke-width="0.64693" stroke-miterlimit="10" stroke-linecap="round" stroke-linejoin="round"/>
<path id="Vector_137" d="M78.2874 50.0522C78.7273 49.3115 79.217 48.6005 79.7514 47.9258" stroke="black" stroke-width="0.64693" stroke-miterlimit="10" stroke-linecap="round" stroke-linejoin="round"/>
<path id="Vector_138" d="M80.4761 49.9132C80.9237 49.2197 81.3986 48.5437 81.8993 47.8877" stroke="black" stroke-width="0.64693" stroke-miterlimit="10" stroke-linecap="round" stroke-linejoin="round"/>
<path id="Vector_139" d="M82.3359 50.1435C83.0379 49.3426 83.7139 48.519 84.3628 47.6748" stroke="black" stroke-width="0.64693" stroke-miterlimit="10" stroke-linecap="round" stroke-linejoin="round"/>
<path id="Vector_140" d="M85.3926 50.1758C85.9548 49.369 86.5506 48.5856 87.1768 47.8274" stroke="black" stroke-width="0.64693" stroke-miterlimit="10" stroke-linecap="round" stroke-linejoin="round"/>
<path id="Vector_141" d="M87.9553 50.1462C88.4431 49.4139 88.9309 48.6815 89.4187 47.9492" stroke="black" stroke-width="0.64693" stroke-miterlimit="10" stroke-linecap="round" stroke-linejoin="round"/>
<path id="Vector_142" d="M53.4343 7.68033C54.4804 6.54691 55.4657 5.35785 56.385 4.11963" stroke="black" stroke-width="0.64693" stroke-miterlimit="10" stroke-linecap="round" stroke-linejoin="round"/>
<path id="Vector_143" d="M49.4822 4.02637C50.23 5.33252 50.9779 6.63933 51.7257 7.94548" stroke="black" stroke-width="0.64693" stroke-miterlimit="10" stroke-linecap="round" stroke-linejoin="round"/>
</g>
</svg>
