<svg width="40" height="40" viewBox="0 0 40 40" fill="none" xmlns="http://www.w3.org/2000/svg">
<path d="M31.272 0H8.72796C7.02307 0 5.63599 1.38708 5.63599 3.09198V36.908C5.63599 38.6129 7.02307 40 8.72796 40H31.272C32.9769 40 34.364 38.6129 34.364 36.908V3.09198C34.364 1.38708 32.9769 0 31.272 0ZM33.1898 36.908C33.1898 37.9655 32.3294 38.8258 31.272 38.8258H8.72796C7.67051 38.8258 6.81015 37.9655 6.81015 36.908V3.09198C6.81015 2.03452 7.67051 1.17417 8.72796 1.17417H31.272C32.3294 1.17417 33.1898 2.03452 33.1898 3.09198V36.908Z" fill="#EFEFEF"/>
<path d="M29.2368 5.00978H10.7632C10.3532 5.00978 10.0195 5.34341 10.0195 5.75342V11.7025C10.0195 12.1126 10.3532 12.4462 10.7632 12.4462H29.2368C29.6468 12.4462 29.9804 12.1126 29.9804 11.7025V5.75342C29.9804 5.34341 29.6468 5.00978 29.2368 5.00978ZM28.8062 11.272H11.1937V6.18395H28.8062V11.272Z" fill="#EFEFEF"/>
<path d="M29.2368 15.0294H10.7632C10.3532 15.0294 10.0195 15.363 10.0195 15.773V34.2466C10.0195 34.6566 10.3532 34.9902 10.7632 34.9902H29.2368C29.6468 34.9902 29.9804 34.6566 29.9804 34.2466V15.773C29.9804 15.363 29.6468 15.0294 29.2368 15.0294ZM17.4559 27.5538V22.4658H22.544V27.5538H17.4559ZM22.544 28.728V33.816H17.4559V28.728H22.544ZM11.1937 22.4658H16.2818V27.5538H11.1937V22.4658ZM17.4559 21.2916V16.2035H22.544V21.2916H17.4559ZM23.7182 22.4658H28.8062V27.5538H23.7182V22.4658ZM28.8062 21.2916H23.7182V16.2035H28.8062V21.2916ZM16.2818 16.2035V21.2916H11.1937V16.2035H16.2818ZM11.1937 28.728H16.2818V33.816H11.1937V28.728ZM23.7182 33.816V28.728H28.8062V33.816H23.7182Z" fill="#EFEFEF"/>
<path d="M21.8786 9.94129C22.2028 9.94129 22.4657 9.67843 22.4657 9.35421V8.10176C22.4657 7.77753 22.2028 7.51468 21.8786 7.51468C21.5544 7.51468 21.2915 7.77753 21.2915 8.10176V9.35421C21.2915 9.67843 21.5544 9.94129 21.8786 9.94129Z" fill="#EFEFEF"/>
<path d="M24.3836 9.94129C24.7078 9.94129 24.9707 9.67843 24.9707 9.35421V8.10176C24.9707 7.77753 24.7078 7.51468 24.3836 7.51468C24.0594 7.51468 23.7965 7.77753 23.7965 8.10176V9.35421C23.7965 9.67843 24.0594 9.94129 24.3836 9.94129Z" fill="#EFEFEF"/>
<path d="M26.8885 9.94129C27.2127 9.94129 27.4756 9.67843 27.4756 9.35421V8.10176C27.4756 7.77753 27.2127 7.51468 26.8885 7.51468C26.5642 7.51468 26.3014 7.77753 26.3014 8.10176V9.35421C26.3014 9.67843 26.5642 9.94129 26.8885 9.94129Z" fill="#EFEFEF"/>
</svg>
