<svg width="47" height="47" viewBox="0 0 47 47" fill="none" xmlns="http://www.w3.org/2000/svg">
<path d="M7.1797 13.3225H9.31517V17.0463C9.31517 17.9134 10.0207 18.6186 10.8875 18.6186H34.1908C35.0576 18.6186 35.7631 17.9134 35.7631 17.0463V13.3225H38.8691C39.2188 13.3225 39.5034 13.6071 39.5034 13.9568V21.195C39.5034 21.545 39.2188 21.8296 38.8691 21.8296H24.2605C23.3205 21.8296 22.5554 22.5942 22.5554 23.5341V25.5368H20.4465C20.1629 25.5368 19.9334 25.7666 19.9334 26.0499V37.198C19.9334 38.9269 21.3399 40.3333 23.0685 40.3333C24.7976 40.3333 26.2041 38.9269 26.2041 37.198V26.0499C26.2041 25.7666 25.9746 25.5368 25.691 25.5368H23.5816V23.5341C23.5816 23.1601 23.8862 22.8557 24.2605 22.8557H38.8691C39.7845 22.8557 40.5296 22.1107 40.5296 21.195V13.9568C40.5296 13.0412 39.7845 12.2963 38.8691 12.2963H35.7631V8.57229C35.7631 7.70523 35.0576 7 34.1908 7H10.8875C10.0207 7 9.31517 7.70523 9.31517 8.57229V12.2963H7.1797C6.89611 12.2963 6.66663 12.5261 6.66663 12.8094C6.66663 13.0928 6.89611 13.3225 7.1797 13.3225ZM23.0685 39.3072C21.9056 39.3072 20.9596 38.361 20.9596 37.198V29.5643H25.1779V37.198C25.1779 38.361 24.2314 39.3072 23.0685 39.3072ZM25.1779 28.5381H20.9596V26.563H25.1779V28.5381ZM10.3413 8.57229C10.3413 8.27116 10.5863 8.02615 10.8875 8.02615H34.1908C34.4919 8.02615 34.7369 8.27116 34.7369 8.57229V17.0463C34.7369 17.3474 34.4919 17.5924 34.1908 17.5924H10.8875C10.5863 17.5924 10.3413 17.3474 10.3413 17.0463V8.57229Z" fill="#F1EFEF"/>
</svg>
