<svg width="189" height="92" viewBox="0 0 189 92" fill="none" xmlns="http://www.w3.org/2000/svg">
<g id="Group">
<g id="Group_2">
<g id="Group_3">
<path id="Vector" d="M137.926 91H12.2302V47.9923L137.926 6.88525V32.4035" stroke="black" stroke-width="2" stroke-miterlimit="10" stroke-linecap="round" stroke-linejoin="round"/>
<path id="Vector_2" d="M145.856 1L5.09229 47.0334V50.3263L145.856 4.29198V1Z" stroke="black" stroke-width="2" stroke-miterlimit="10" stroke-linecap="round" stroke-linejoin="round"/>
<path id="Vector_3" d="M124.104 27.8535L183.799 47.5011V50.794L124.104 31.1464V27.8535Z" stroke="black" stroke-width="2" stroke-miterlimit="10" stroke-linecap="round" stroke-linejoin="round"/>
<path id="Vector_4" d="M177.334 91.0001H130.267V33.1755L177.334 48.6662V91.0001Z" stroke="black" stroke-width="2" stroke-miterlimit="10" stroke-linecap="round" stroke-linejoin="round"/>
<path id="Vector_5" d="M130.266 39.5156H60.3779V44.7564H130.266V39.5156Z" stroke="black" stroke-width="2" stroke-miterlimit="10" stroke-linecap="round" stroke-linejoin="round"/>
<path id="Vector_6" d="M130.266 44.7554H62.7515V47.3349H130.266V44.7554Z" stroke="black" stroke-width="2" stroke-miterlimit="10" stroke-linecap="round" stroke-linejoin="round"/>
<path id="Vector_7" d="M72.4096 47.335H67.5806V90.9991H72.4096V47.335Z" stroke="black" stroke-width="2" stroke-miterlimit="10" stroke-linecap="round" stroke-linejoin="round"/>
</g>
<path id="Vector_8" d="M112.986 87.5408H87.5796V90.9999H112.986V87.5408Z" stroke="black" stroke-width="2" stroke-miterlimit="10" stroke-linecap="round" stroke-linejoin="round"/>
<path id="Vector_9" d="M110.371 84.7935H90.1953V87.5401H110.371V84.7935Z" stroke="black" stroke-width="2" stroke-miterlimit="10" stroke-linecap="round" stroke-linejoin="round"/>
<g id="Group_4">
<path id="Vector_10" d="M94.1566 84.473C94.148 77.2231 94.1385 69.9731 94.1299 62.7232C99.3388 62.6362 107.214 62.7215 107.214 62.7215L107.012 84.7944" stroke="black" stroke-width="2" stroke-miterlimit="10" stroke-linecap="round" stroke-linejoin="round"/>
<path id="Vector_11" d="M99.4833 69.327C99.4833 69.327 97.3631 69.3735 96.2422 69.3252C96.2422 67.7856 96.2422 66.2461 96.2422 64.7056C97.2959 64.8322 99.4833 64.6565 99.4833 64.6565V69.327Z" stroke="black" stroke-width="2" stroke-miterlimit="10" stroke-linecap="round" stroke-linejoin="round"/>
<path id="Vector_12" d="M104.908 69.327C104.908 69.327 102.787 69.3735 101.667 69.3252C101.667 67.7856 101.667 66.2461 101.667 64.7056C102.721 64.8322 104.908 64.6565 104.908 64.6565V69.327Z" stroke="black" stroke-width="2" stroke-miterlimit="10" stroke-linecap="round" stroke-linejoin="round"/>
<path id="Vector_13" d="M99.4833 76.0634C99.4833 76.0634 97.3631 76.1099 96.2422 76.0617C96.2422 74.5221 96.2422 72.9825 96.2422 71.4429C97.2959 71.5696 99.4833 71.3938 99.4833 71.3938V76.0634Z" stroke="black" stroke-width="2" stroke-miterlimit="10" stroke-linecap="round" stroke-linejoin="round"/>
<path id="Vector_14" d="M104.908 76.0634C104.908 76.0634 102.787 76.1099 101.667 76.0617C101.667 74.5221 101.667 72.9825 101.667 71.4429C102.721 71.5696 104.908 71.3938 104.908 71.3938V76.0634Z" stroke="black" stroke-width="2" stroke-miterlimit="10" stroke-linecap="round" stroke-linejoin="round"/>
<path id="Vector_15" d="M99.4833 82.7585C99.4833 82.7585 97.3631 82.805 96.2422 82.7567C96.2422 81.2172 96.2422 79.6776 96.2422 78.138C97.2959 78.2646 99.4833 78.0889 99.4833 78.0889V82.7585Z" stroke="black" stroke-width="2" stroke-miterlimit="10" stroke-linecap="round" stroke-linejoin="round"/>
<path id="Vector_16" d="M104.908 82.7585C104.908 82.7585 102.787 82.805 101.667 82.7567C101.667 81.2172 101.667 79.6776 101.667 78.138C102.721 78.2646 104.908 78.0889 104.908 78.0889V82.7585Z" stroke="black" stroke-width="2" stroke-miterlimit="10" stroke-linecap="round" stroke-linejoin="round"/>
<path id="Vector_17" d="M96.4502 66.8672C97.2454 66.1952 98.0406 65.5223 98.8367 64.8503" stroke="black" stroke-miterlimit="10" stroke-linecap="round" stroke-linejoin="round"/>
<path id="Vector_18" d="M96.6353 68.2812C97.446 67.6135 98.2575 66.9458 99.0691 66.2781" stroke="black" stroke-miterlimit="10" stroke-linecap="round" stroke-linejoin="round"/>
<path id="Vector_19" d="M97.5381 69.0781C98.0318 68.562 98.5478 68.0658 99.0828 67.5928" stroke="black" stroke-miterlimit="10" stroke-linecap="round" stroke-linejoin="round"/>
<path id="Vector_20" d="M101.694 66.7355C102.42 66.0574 103.196 65.4337 104.014 64.8711" stroke="black" stroke-miterlimit="10" stroke-linecap="round" stroke-linejoin="round"/>
<path id="Vector_21" d="M101.937 68.0606C102.85 67.2137 103.796 66.4021 104.772 65.6284" stroke="black" stroke-miterlimit="10" stroke-linecap="round" stroke-linejoin="round"/>
<path id="Vector_22" d="M102.961 69.0142C103.624 68.5558 104.251 68.0475 104.836 67.4944" stroke="black" stroke-miterlimit="10" stroke-linecap="round" stroke-linejoin="round"/>
<path id="Vector_23" d="M96.5229 73.4434C96.977 72.8739 97.537 72.3889 98.1668 72.021" stroke="black" stroke-miterlimit="10" stroke-linecap="round" stroke-linejoin="round"/>
<path id="Vector_24" d="M96.6035 74.5306C97.5409 73.8552 98.4791 73.1806 99.4165 72.5051" stroke="black" stroke-miterlimit="10" stroke-linecap="round" stroke-linejoin="round"/>
<path id="Vector_25" d="M97.3462 75.5672C97.926 75.1097 98.5058 74.6513 99.0857 74.1938" stroke="black" stroke-miterlimit="10" stroke-linecap="round" stroke-linejoin="round"/>
<path id="Vector_26" d="M101.698 73.2004C102.297 72.7033 102.938 72.2553 103.61 71.8616" stroke="black" stroke-miterlimit="10" stroke-linecap="round" stroke-linejoin="round"/>
<path id="Vector_27" d="M101.802 74.4584C102.731 73.7769 103.661 73.0946 104.591 72.4131" stroke="black" stroke-miterlimit="10" stroke-linecap="round" stroke-linejoin="round"/>
<path id="Vector_28" d="M102.164 75.7954C103.13 75.1613 104.027 74.4212 104.832 73.5916" stroke="black" stroke-miterlimit="10" stroke-linecap="round" stroke-linejoin="round"/>
<path id="Vector_29" d="M96.5337 80.0576C97.16 79.508 97.826 79.004 98.5247 78.5491" stroke="black" stroke-miterlimit="10" stroke-linecap="round" stroke-linejoin="round"/>
<path id="Vector_30" d="M96.4854 81.3371C97.3779 80.7745 98.2705 80.2127 99.163 79.6501" stroke="black" stroke-miterlimit="10" stroke-linecap="round" stroke-linejoin="round"/>
<path id="Vector_31" d="M97.1616 82.6026C97.8681 82.0684 98.5746 81.5351 99.2819 81.001" stroke="black" stroke-miterlimit="10" stroke-linecap="round" stroke-linejoin="round"/>
<path id="Vector_32" d="M102.01 80.0766C102.774 79.5562 103.539 79.0367 104.303 78.5164" stroke="black" stroke-miterlimit="10" stroke-linecap="round" stroke-linejoin="round"/>
<path id="Vector_33" d="M101.876 81.4265C102.859 80.9173 103.814 80.3556 104.738 79.7456" stroke="black" stroke-miterlimit="10" stroke-linecap="round" stroke-linejoin="round"/>
</g>
<g id="Group_5">
<g id="Group_6">
<path id="Vector_34" d="M161.249 70.738H146.654V72.7317H161.249V70.738Z" stroke="black" stroke-width="2" stroke-miterlimit="10" stroke-linecap="round" stroke-linejoin="round"/>
<path id="Vector_35" d="M159.601 70.7381C159.69 65.7721 159.61 54.9795 159.61 54.9795H148.27C148.27 54.9795 148.347 65.7713 148.258 70.7381" stroke="black" stroke-width="2" stroke-miterlimit="10" stroke-linecap="round" stroke-linejoin="round"/>
<path id="Vector_36" d="M148.291 62.5198H159.643" stroke="black" stroke-width="2" stroke-miterlimit="10" stroke-linecap="round" stroke-linejoin="round"/>
<path id="Vector_37" d="M153.967 70.6519V55.0579" stroke="black" stroke-width="2" stroke-miterlimit="10" stroke-linecap="round" stroke-linejoin="round"/>
</g>
<path id="Vector_38" d="M149.678 58.243C150.09 57.8252 150.502 57.4082 150.914 56.9912" stroke="black" stroke-miterlimit="10" stroke-linecap="round" stroke-linejoin="round"/>
<path id="Vector_39" d="M149.929 60.0481C150.615 58.9117 151.468 57.8752 152.451 56.9827" stroke="black" stroke-miterlimit="10" stroke-linecap="round" stroke-linejoin="round"/>
<path id="Vector_40" d="M155.413 65.7886C155.716 65.3354 156.074 64.9193 156.477 64.5522" stroke="black" stroke-miterlimit="10" stroke-linecap="round" stroke-linejoin="round"/>
<path id="Vector_41" d="M155.629 67.6175C156.403 66.5578 157.175 65.4981 157.948 64.4375" stroke="black" stroke-miterlimit="10" stroke-linecap="round" stroke-linejoin="round"/>
</g>
<path id="Vector_42" d="M58.9572 55.7668H20.72V90.9999H58.9572V55.7668Z" stroke="black" stroke-width="2" stroke-miterlimit="10" stroke-linecap="round" stroke-linejoin="round"/>
<g id="Group_7">
<g id="Group_8">
<path id="Vector_43" d="M126.219 58.1544V50.8054C126.219 50.8054 115.885 50.8795 111.129 50.7942V61.6557C115.885 61.741 126.219 61.6652 126.219 61.6652V58.1544Z" stroke="black" stroke-width="2" stroke-miterlimit="10" stroke-linecap="round" stroke-linejoin="round"/>
<path id="Vector_44" d="M118.999 50.8252V61.6954" stroke="black" stroke-width="2" stroke-miterlimit="10" stroke-linecap="round" stroke-linejoin="round"/>
<path id="Vector_45" d="M111.211 56.2607H126.144" stroke="black" stroke-width="2" stroke-miterlimit="10" stroke-linecap="round" stroke-linejoin="round"/>
</g>
<path id="Vector_46" d="M123.095 52.1528C123.494 52.5474 123.894 52.942 124.294 53.3366" stroke="black" stroke-miterlimit="10" stroke-linecap="round" stroke-linejoin="round"/>
<path id="Vector_47" d="M121.365 52.3933C122.453 53.0507 123.446 53.8666 124.301 54.8082" stroke="black" stroke-miterlimit="10" stroke-linecap="round" stroke-linejoin="round"/>
<path id="Vector_48" d="M115.869 57.6443C116.302 57.9346 116.701 58.2775 117.052 58.6635" stroke="black" stroke-miterlimit="10" stroke-linecap="round" stroke-linejoin="round"/>
<path id="Vector_49" d="M114.117 57.8511C115.132 58.5911 116.147 59.3321 117.162 60.0721" stroke="black" stroke-miterlimit="10" stroke-linecap="round" stroke-linejoin="round"/>
</g>
<g id="Group_9">
<g id="Group_10">
<path id="Vector_50" d="M91.0964 58.1544V50.8054C91.0964 50.8054 80.7621 50.8795 76.0063 50.7942V61.6557C80.7621 61.741 91.0964 61.6652 91.0964 61.6652V58.1544Z" stroke="black" stroke-width="2" stroke-miterlimit="10" stroke-linecap="round" stroke-linejoin="round"/>
<path id="Vector_51" d="M83.876 50.8252V61.6954" stroke="black" stroke-width="2" stroke-miterlimit="10" stroke-linecap="round" stroke-linejoin="round"/>
<path id="Vector_52" d="M76.0884 56.2607H91.0216" stroke="black" stroke-width="2" stroke-miterlimit="10" stroke-linecap="round" stroke-linejoin="round"/>
</g>
<path id="Vector_53" d="M87.9717 52.1528C88.3714 52.5474 88.7712 52.942 89.171 53.3366" stroke="black" stroke-miterlimit="10" stroke-linecap="round" stroke-linejoin="round"/>
<path id="Vector_54" d="M86.2432 52.3933C87.3313 53.0507 88.3238 53.8666 89.1785 54.8082" stroke="black" stroke-miterlimit="10" stroke-linecap="round" stroke-linejoin="round"/>
<path id="Vector_55" d="M80.7456 57.6443C81.1798 57.9346 81.5779 58.2775 81.9294 58.6635" stroke="black" stroke-miterlimit="10" stroke-linecap="round" stroke-linejoin="round"/>
<path id="Vector_56" d="M78.9941 57.8511C80.009 58.5911 81.024 59.3321 82.0389 60.0721" stroke="black" stroke-miterlimit="10" stroke-linecap="round" stroke-linejoin="round"/>
</g>
<path id="Vector_57" d="M82.7466 24.9312V39.3242" stroke="black" stroke-width="2" stroke-miterlimit="10" stroke-linecap="round" stroke-linejoin="round"/>
<path id="Vector_58" d="M95.3223 20.8181V39.3242" stroke="black" stroke-width="2" stroke-miterlimit="10" stroke-linecap="round" stroke-linejoin="round"/>
<path id="Vector_59" d="M111.196 15.6274V39.3243" stroke="black" stroke-width="2" stroke-miterlimit="10" stroke-linecap="round" stroke-linejoin="round"/>
<path id="Vector_60" d="M99.0693 19.593V39.3242" stroke="black" stroke-width="2" stroke-miterlimit="10" stroke-linecap="round" stroke-linejoin="round"/>
<path id="Vector_61" d="M85.8911 29.65C87.0378 28.6178 88.1303 27.5245 89.1615 26.377" stroke="black" stroke-miterlimit="10" stroke-linecap="round" stroke-linejoin="round"/>
<path id="Vector_62" d="M85.1372 36.2865C87.7537 32.7636 90.3702 29.2416 92.9868 25.7188" stroke="black" stroke-miterlimit="10" stroke-linecap="round" stroke-linejoin="round"/>
<path id="Vector_63" d="M101.484 26.1502C102.343 25.268 103.202 24.3849 104.061 23.5027" stroke="black" stroke-miterlimit="10" stroke-linecap="round" stroke-linejoin="round"/>
<path id="Vector_64" d="M101.373 33.7209L109.689 24.3989" stroke="black" stroke-miterlimit="10" stroke-linecap="round" stroke-linejoin="round"/>
<path id="Vector_65" d="M20.72 60.627H58.9572" stroke="black" stroke-miterlimit="10" stroke-linecap="round" stroke-linejoin="round"/>
<path id="Vector_66" d="M20.72 65.7351H58.9572" stroke="black" stroke-miterlimit="10" stroke-linecap="round" stroke-linejoin="round"/>
<path id="Vector_67" d="M20.72 70.8433H58.9572" stroke="black" stroke-miterlimit="10" stroke-linecap="round" stroke-linejoin="round"/>
<path id="Vector_68" d="M20.72 75.9514H58.9572" stroke="black" stroke-miterlimit="10" stroke-linecap="round" stroke-linejoin="round"/>
<path id="Vector_69" d="M20.72 81.0586H58.9572" stroke="black" stroke-miterlimit="10" stroke-linecap="round" stroke-linejoin="round"/>
<path id="Vector_70" d="M20.72 86.1667H58.9572" stroke="black" stroke-miterlimit="10" stroke-linecap="round" stroke-linejoin="round"/>
<path id="Vector_71" d="M42.4181 89.2087H37.2583V90.8302H42.4181V89.2087Z" stroke="black" stroke-miterlimit="10" stroke-linecap="round" stroke-linejoin="round"/>
<g id="Group_11">
<path id="Vector_72" d="M16.4543 54.808V51.3083" stroke="black" stroke-miterlimit="10" stroke-linecap="round" stroke-linejoin="round"/>
<path id="Vector_73" d="M16.4543 88.1145V58.6633" stroke="black" stroke-miterlimit="10" stroke-linecap="round" stroke-linejoin="round"/>
</g>
<g id="Group_12">
<path id="Vector_74" d="M63.3003 84.615V88.1146" stroke="black" stroke-miterlimit="10" stroke-linecap="round" stroke-linejoin="round"/>
<path id="Vector_75" d="M63.3003 51.3083V80.7595" stroke="black" stroke-miterlimit="10" stroke-linecap="round" stroke-linejoin="round"/>
</g>
<g id="Group_13">
<path id="Vector_76" d="M134.144 83.428V88.1157" stroke="black" stroke-miterlimit="10" stroke-linecap="round" stroke-linejoin="round"/>
<path id="Vector_77" d="M134.144 48.9426V78.2646" stroke="black" stroke-miterlimit="10" stroke-linecap="round" stroke-linejoin="round"/>
<path id="Vector_78" d="M134.144 38.8247V44.4782" stroke="black" stroke-miterlimit="10" stroke-linecap="round" stroke-linejoin="round"/>
</g>
<g id="Group_14">
<path id="Vector_79" d="M76.0063 85.9333V88.1148" stroke="black" stroke-miterlimit="10" stroke-linecap="round" stroke-linejoin="round"/>
<path id="Vector_80" d="M76.0063 69.8801V83.5297" stroke="black" stroke-miterlimit="10" stroke-linecap="round" stroke-linejoin="round"/>
<path id="Vector_81" d="M76.0063 65.1699V67.802" stroke="black" stroke-miterlimit="10" stroke-linecap="round" stroke-linejoin="round"/>
</g>
<g id="Group_15">
<path id="Vector_82" d="M126.144 85.9333V88.1148" stroke="black" stroke-miterlimit="10" stroke-linecap="round" stroke-linejoin="round"/>
<path id="Vector_83" d="M126.144 69.8801V83.5297" stroke="black" stroke-miterlimit="10" stroke-linecap="round" stroke-linejoin="round"/>
<path id="Vector_84" d="M126.144 65.1699V73.7389" stroke="black" stroke-miterlimit="10" stroke-linecap="round" stroke-linejoin="round"/>
</g>
<g id="Group_16">
<path id="Vector_85" d="M173.348 84.7185V88.1147" stroke="black" stroke-miterlimit="10" stroke-linecap="round" stroke-linejoin="round"/>
<path id="Vector_86" d="M173.348 52.1528V80.9768" stroke="black" stroke-miterlimit="10" stroke-linecap="round" stroke-linejoin="round"/>
</g>
<path id="Vector_87" d="M75.4741 31.1947C77.6849 30.4891 78.9944 30.0713 78.9944 30.0713" stroke="black" stroke-miterlimit="10" stroke-linecap="round" stroke-linejoin="round"/>
<path id="Vector_88" d="M61.73 35.5749C65.7698 34.2886 69.4762 33.1082 72.4097 32.1726" stroke="black" stroke-miterlimit="10" stroke-linecap="round" stroke-linejoin="round"/>
<path id="Vector_89" d="M128.806 14.1437C131.016 13.4381 132.326 13.0203 132.326 13.0203" stroke="black" stroke-miterlimit="10" stroke-linecap="round" stroke-linejoin="round"/>
<path id="Vector_90" d="M115.062 18.5231C119.101 17.2377 122.808 16.0565 125.741 15.1208" stroke="black" stroke-miterlimit="10" stroke-linecap="round" stroke-linejoin="round"/>
<path id="Vector_91" d="M25.2466 47.0549C25.4637 47.0851 41.7358 41.933 56.3166 37.2961" stroke="black" stroke-miterlimit="10" stroke-linecap="round" stroke-linejoin="round"/>
<path id="Vector_92" d="M134.144 27.8537V15.1208" stroke="black" stroke-miterlimit="10" stroke-linecap="round" stroke-linejoin="round"/>
</g>
<path id="Vector_93" d="M1 90.9534H187.892" stroke="black" stroke-width="2" stroke-miterlimit="10" stroke-linecap="round" stroke-linejoin="round"/>
</g>
</svg>
