<svg width="47" height="47" viewBox="0 0 47 47" fill="none" xmlns="http://www.w3.org/2000/svg">
<path d="M10.6 21.3889C10.3654 21.3889 10.2059 21.278 10.1217 21.0564C10.0374 20.8347 10.0867 20.6532 10.2694 20.5119L21.5667 10.3347C21.8467 10.0469 22.172 9.84405 22.5428 9.72609C22.9135 9.60942 23.2881 9.55109 23.6667 9.55109C24.0452 9.55109 24.4198 9.60942 24.7906 9.72609C25.1613 9.84405 25.4873 10.0469 25.7686 10.3347L31.145 15.2269V12.3394C31.145 11.8948 31.2954 11.5221 31.5961 11.2214C31.8981 10.9193 32.2715 10.7683 32.7161 10.7683H33.1633C33.4822 10.7683 33.7493 10.8759 33.9644 11.0911C34.1796 11.3063 34.2872 11.5727 34.2872 11.8903V18.0094L37.0639 20.51C37.2454 20.6526 37.2946 20.834 37.2117 21.0544C37.1287 21.2748 36.9686 21.3863 36.7314 21.3889H36.3172C35.927 21.3889 35.5492 21.3247 35.1836 21.1964C34.8206 21.0667 34.4979 20.8658 34.2153 20.5936L23.6667 11.0833L13.1181 20.5916C12.8368 20.8665 12.514 21.068 12.1497 21.1964C11.7842 21.3247 11.4063 21.3889 11.0161 21.3889H10.6ZM19.1789 35.3869V29.153C19.1789 28.711 19.3299 28.3415 19.6319 28.0447C19.9327 27.7465 20.3054 27.5975 20.75 27.5975H26.5833C27.028 27.5975 27.4006 27.7465 27.7014 28.0447C28.0034 28.3428 28.1544 28.7123 28.1544 29.153V35.3889C28.1544 35.8296 28.0034 36.199 27.7014 36.4972C27.4006 36.7953 27.028 36.9444 26.5833 36.9444H20.75C20.3054 36.9444 19.9327 36.7953 19.6319 36.4972C19.3299 36.199 19.1789 35.829 19.1789 35.3869ZM21.1233 35H26.21V29.54H21.1233V35Z" fill="#F1EFEF"/>
</svg>
