<svg width="150" height="82" viewBox="0 0 150 82" fill="none" xmlns="http://www.w3.org/2000/svg">
<g id="medium svg">
<g id="Group">
<g id="Group_2">
<g id="Group_3">
<g id="Group_4">
<g id="Group_5">
<path id="Vector" d="M74.3053 1L7.47607 41.9418L9.00322 45.5284L74.3053 7.4433V1Z" stroke="black" stroke-width="1.54726" stroke-miterlimit="10" stroke-linecap="round" stroke-linejoin="round"/>
<path id="Vector_2" d="M74.3054 1L141.135 41.9418L139.608 45.5284L74.3054 7.4433V1Z" stroke="black" stroke-width="1.54726" stroke-miterlimit="10" stroke-linecap="round" stroke-linejoin="round"/>
<path id="Vector_3" d="M15.273 41.8706L15.167 80.889L136.305 81.1001C135.43 66.1485 135.825 43.3176 135.825 43.3176" stroke="black" stroke-width="1.54726" stroke-miterlimit="10" stroke-linecap="round" stroke-linejoin="round"/>
</g>
</g>
<path id="Vector_4" d="M1 80.8889L149 81.1203" stroke="black" stroke-width="1.54726" stroke-miterlimit="10" stroke-linecap="round" stroke-linejoin="round"/>
</g>
</g>
</g>
<g id="Group_6">
<g id="Group_7">
<path id="Vector_5" d="M37.3151 65.8079H23.04V67.9449H37.3151V65.8079Z" stroke="black" stroke-width="1.54726" stroke-miterlimit="10" stroke-linecap="round" stroke-linejoin="round"/>
<path id="Vector_6" d="M35.7042 65.8079C35.7917 60.4852 35.7135 48.9185 35.7135 48.9185H24.6212C24.6212 48.9185 24.697 60.4852 24.6096 65.8079" stroke="black" stroke-width="1.54726" stroke-miterlimit="10" stroke-linecap="round" stroke-linejoin="round"/>
<path id="Vector_7" d="M24.6416 57.0005H35.7455" stroke="black" stroke-width="1.54726" stroke-miterlimit="10" stroke-linecap="round" stroke-linejoin="round"/>
<path id="Vector_8" d="M30.1938 65.7164V49.0024" stroke="black" stroke-width="1.54726" stroke-miterlimit="10" stroke-linecap="round" stroke-linejoin="round"/>
</g>
<path id="Vector_9" d="M25.917 52.6177C26.2999 52.1404 26.6837 51.6623 27.0666 51.1851" stroke="black" stroke-width="0.77363" stroke-miterlimit="10" stroke-linecap="round" stroke-linejoin="round"/>
<path id="Vector_10" d="M26.3154 54.6709C27.1757 53.5672 27.9826 52.4144 28.733 51.2183" stroke="black" stroke-width="0.77363" stroke-miterlimit="10" stroke-linecap="round" stroke-linejoin="round"/>
<path id="Vector_11" d="M31.5469 59.8233C31.8354 59.3689 32.2045 58.9747 32.6269 58.6704" stroke="black" stroke-width="0.77363" stroke-miterlimit="10" stroke-linecap="round" stroke-linejoin="round"/>
<path id="Vector_12" d="M31.7705 62.6655C32.5627 61.694 33.3549 60.7226 34.1479 59.752" stroke="black" stroke-width="0.77363" stroke-miterlimit="10" stroke-linecap="round" stroke-linejoin="round"/>
</g>
<g id="Group_8">
<g id="Group_9">
<path id="Vector_13" d="M126.818 65.8079H112.543V67.9449H126.818V65.8079Z" stroke="black" stroke-width="1.54726" stroke-miterlimit="10" stroke-linecap="round" stroke-linejoin="round"/>
<path id="Vector_14" d="M125.208 65.8079C125.295 60.4852 125.217 48.9185 125.217 48.9185H114.125C114.125 48.9185 114.201 60.4852 114.113 65.8079" stroke="black" stroke-width="1.54726" stroke-miterlimit="10" stroke-linecap="round" stroke-linejoin="round"/>
<path id="Vector_15" d="M114.146 57.0005H125.249" stroke="black" stroke-width="1.54726" stroke-miterlimit="10" stroke-linecap="round" stroke-linejoin="round"/>
<path id="Vector_16" d="M119.697 65.7164V49.0024" stroke="black" stroke-width="1.54726" stroke-miterlimit="10" stroke-linecap="round" stroke-linejoin="round"/>
</g>
<path id="Vector_17" d="M115.421 52.6177C115.804 52.1404 116.188 51.6623 116.571 51.1851" stroke="black" stroke-width="0.77363" stroke-miterlimit="10" stroke-linecap="round" stroke-linejoin="round"/>
<path id="Vector_18" d="M115.82 54.6709C116.68 53.5672 117.487 52.4144 118.237 51.2183" stroke="black" stroke-width="0.77363" stroke-miterlimit="10" stroke-linecap="round" stroke-linejoin="round"/>
<path id="Vector_19" d="M121.051 59.8233C121.339 59.3689 121.708 58.9747 122.131 58.6704" stroke="black" stroke-width="0.77363" stroke-miterlimit="10" stroke-linecap="round" stroke-linejoin="round"/>
<path id="Vector_20" d="M121.274 62.6655C122.066 61.694 122.859 60.7226 123.651 59.752" stroke="black" stroke-width="0.77363" stroke-miterlimit="10" stroke-linecap="round" stroke-linejoin="round"/>
</g>
<path id="Vector_21" d="M42.499 43.9441L74.3656 24.5464L104.652 43.9441V40.4804L74.3656 20.3901L42.499 40.4804V43.9441Z" stroke="black" stroke-width="1.54726" stroke-miterlimit="10" stroke-linecap="round" stroke-linejoin="round"/>
<path id="Vector_22" d="M102.614 42.6388V80.7162H45.2969V42.2412" stroke="black" stroke-width="1.54726" stroke-miterlimit="10" stroke-linecap="round" stroke-linejoin="round"/>
<path id="Vector_23" d="M48.8672 40.2183H98.8359" stroke="black" stroke-width="1.54726" stroke-miterlimit="10" stroke-linecap="round" stroke-linejoin="round"/>
<path id="Vector_24" d="M48.8672 40.2183V80.7159" stroke="black" stroke-width="1.54726" stroke-miterlimit="10" stroke-linecap="round" stroke-linejoin="round"/>
<path id="Vector_25" d="M99.2222 40.4668V80.716" stroke="black" stroke-width="1.54726" stroke-miterlimit="10" stroke-linecap="round" stroke-linejoin="round"/>
<g id="Group_10">
<g id="Group_11">
<path id="Vector_26" d="M81.3035 74.7542C81.4141 65.5957 81.3159 45.5283 81.3159 45.5283H67.2691C67.2691 45.5283 67.365 65.7475 67.2544 74.9059" stroke="black" stroke-width="1.54726" stroke-miterlimit="10" stroke-linecap="round" stroke-linejoin="round"/>
<g id="Group_12">
<path id="Vector_27" d="M78.8562 47.9355H75.7129V56.3608H78.8562V47.9355Z" stroke="black" stroke-width="1.54726" stroke-miterlimit="10" stroke-linecap="round" stroke-linejoin="round"/>
<path id="Vector_28" d="M72.8972 47.9355H69.7539V56.3608H72.8972V47.9355Z" stroke="black" stroke-width="1.54726" stroke-miterlimit="10" stroke-linecap="round" stroke-linejoin="round"/>
</g>
<g id="Group_13">
<path id="Vector_29" d="M78.8562 58.7412H75.7129V67.1664H78.8562V58.7412Z" stroke="black" stroke-width="1.54726" stroke-miterlimit="10" stroke-linecap="round" stroke-linejoin="round"/>
<path id="Vector_30" d="M72.8972 58.7412H69.7539V67.1664H72.8972V58.7412Z" stroke="black" stroke-width="1.54726" stroke-miterlimit="10" stroke-linecap="round" stroke-linejoin="round"/>
</g>
<path id="Vector_31" d="M78.8564 69.3848H69.7539V72.7001H78.8564V69.3848Z" stroke="black" stroke-width="1.54726" stroke-miterlimit="10" stroke-linecap="round" stroke-linejoin="round"/>
</g>
<path id="Vector_32" d="M85.5376 77.5728H63.0737V80.8889H85.5376V77.5728Z" stroke="black" stroke-width="1.54726" stroke-miterlimit="10" stroke-linecap="round" stroke-linejoin="round"/>
<path id="Vector_33" d="M83.3426 74.9053H65.2676V77.573H83.3426V74.9053Z" stroke="black" stroke-width="1.54726" stroke-miterlimit="10" stroke-linecap="round" stroke-linejoin="round"/>
</g>
<path id="Vector_34" d="M60.4192 50.21C59.8397 50.21 59.3701 49.6954 59.3701 49.0605V46.6768C59.3701 46.0419 59.8397 45.5273 60.4192 45.5273C60.9986 45.5273 61.4682 46.0419 61.4682 46.6768V49.0605C61.4682 49.6954 60.9986 50.21 60.4192 50.21Z" stroke="black" stroke-width="1.54726" stroke-miterlimit="10" stroke-linecap="round" stroke-linejoin="round"/>
<path id="Vector_35" d="M88.1921 50.2102C87.6126 50.2102 87.1431 49.6957 87.1431 49.0608V46.6771C87.1431 46.0421 87.6126 45.5276 88.1921 45.5276C88.7715 45.5276 89.2412 46.0421 89.2412 46.6771V49.0608C89.2412 49.6957 88.7715 50.2102 88.1921 50.2102Z" stroke="black" stroke-width="1.54726" stroke-miterlimit="10" stroke-linecap="round" stroke-linejoin="round"/>
<path id="Vector_36" d="M63.0741 71.9766H48.8672V80.7171H63.0741V71.9766Z" stroke="black" stroke-width="1.54726" stroke-miterlimit="10" stroke-linecap="round" stroke-linejoin="round"/>
<path id="Vector_37" d="M98.8355 71.9763H85.5376V80.7169H98.8355V71.9763Z" stroke="black" stroke-width="1.54726" stroke-miterlimit="10" stroke-linecap="round" stroke-linejoin="round"/>
<g id="Group_14">
<g id="Group_15">
<path id="Vector_38" d="M24.8518 76.1081C22.4946 76.1581 20.1358 76.1352 17.7793 76.0386" stroke="black" stroke-width="0.77363" stroke-miterlimit="10" stroke-linecap="round" stroke-linejoin="round"/>
<path id="Vector_39" d="M21.165 76.1182C21.1852 76.798 21.2045 77.4779 21.2246 78.1569" stroke="black" stroke-width="0.77363" stroke-miterlimit="10" stroke-linecap="round" stroke-linejoin="round"/>
</g>
<path id="Vector_40" d="M23.4297 76.0724C23.4552 75.4883 23.4808 74.9051 23.5055 74.321" stroke="black" stroke-width="0.77363" stroke-miterlimit="10" stroke-linecap="round" stroke-linejoin="round"/>
</g>
<g id="Group_16">
<g id="Group_17">
<path id="Vector_41" d="M42.2127 76.1081C39.8554 76.1581 37.4966 76.1352 35.1401 76.0386" stroke="black" stroke-width="0.77363" stroke-miterlimit="10" stroke-linecap="round" stroke-linejoin="round"/>
<path id="Vector_42" d="M38.5264 76.1182C38.5465 76.798 38.5658 77.4779 38.5859 78.1569" stroke="black" stroke-width="0.77363" stroke-miterlimit="10" stroke-linecap="round" stroke-linejoin="round"/>
</g>
<path id="Vector_43" d="M40.79 76.0724C40.8156 75.4883 40.8411 74.9051 40.8659 74.321" stroke="black" stroke-width="0.77363" stroke-miterlimit="10" stroke-linecap="round" stroke-linejoin="round"/>
</g>
<g id="Group_18">
<g id="Group_19">
<path id="Vector_44" d="M58.6761 65.6772C56.3188 65.7272 53.96 65.7043 51.6035 65.6077" stroke="black" stroke-width="0.77363" stroke-miterlimit="10" stroke-linecap="round" stroke-linejoin="round"/>
<path id="Vector_45" d="M54.9897 65.6873C55.0099 66.3671 55.0292 67.047 55.0493 67.726" stroke="black" stroke-width="0.77363" stroke-miterlimit="10" stroke-linecap="round" stroke-linejoin="round"/>
</g>
<path id="Vector_46" d="M57.2542 65.6415C57.2797 65.0574 57.3052 64.4742 57.33 63.8901" stroke="black" stroke-width="0.77363" stroke-miterlimit="10" stroke-linecap="round" stroke-linejoin="round"/>
</g>
<g id="Group_20">
<g id="Group_21">
<path id="Vector_47" d="M26.7979 72.6885C29.1551 72.6385 31.5139 72.6614 33.8704 72.7581" stroke="black" stroke-width="0.77363" stroke-miterlimit="10" stroke-linecap="round" stroke-linejoin="round"/>
<path id="Vector_48" d="M30.4834 72.6783C30.4633 71.9985 30.4439 71.3195 30.4238 70.6396" stroke="black" stroke-width="0.77363" stroke-miterlimit="10" stroke-linecap="round" stroke-linejoin="round"/>
</g>
<path id="Vector_49" d="M28.2199 72.7241C28.1943 73.3082 28.1688 73.8914 28.144 74.4754" stroke="black" stroke-width="0.77363" stroke-miterlimit="10" stroke-linecap="round" stroke-linejoin="round"/>
</g>
<g id="Group_22">
<g id="Group_23">
<path id="Vector_50" d="M57.3301 57.8209C59.6873 57.7709 62.0461 57.7937 64.4026 57.8904" stroke="black" stroke-width="0.77363" stroke-miterlimit="10" stroke-linecap="round" stroke-linejoin="round"/>
<path id="Vector_51" d="M61.0164 57.8107C60.9962 57.1308 60.9769 56.451 60.9568 55.772" stroke="black" stroke-width="0.77363" stroke-miterlimit="10" stroke-linecap="round" stroke-linejoin="round"/>
</g>
<path id="Vector_52" d="M58.7521 57.8564C58.7265 58.4405 58.701 59.0237 58.6763 59.6078" stroke="black" stroke-width="0.77363" stroke-miterlimit="10" stroke-linecap="round" stroke-linejoin="round"/>
</g>
<g id="Group_24">
<g id="Group_25">
<path id="Vector_53" d="M24.8518 45.2031C22.4946 45.2531 20.1358 45.2302 17.7793 45.1335" stroke="black" stroke-width="0.77363" stroke-miterlimit="10" stroke-linecap="round" stroke-linejoin="round"/>
<path id="Vector_54" d="M21.165 45.2141C21.1852 45.894 21.2045 46.573 21.2246 47.2528" stroke="black" stroke-width="0.77363" stroke-miterlimit="10" stroke-linecap="round" stroke-linejoin="round"/>
</g>
<path id="Vector_55" d="M23.4297 45.1673C23.4552 44.5833 23.4808 44.0001 23.5055 43.416" stroke="black" stroke-width="0.77363" stroke-miterlimit="10" stroke-linecap="round" stroke-linejoin="round"/>
</g>
<g id="Group_26">
<g id="Group_27">
<path id="Vector_56" d="M44.3264 58.6005C41.9692 58.6505 39.6104 58.6276 37.2539 58.531" stroke="black" stroke-width="0.77363" stroke-miterlimit="10" stroke-linecap="round" stroke-linejoin="round"/>
<path id="Vector_57" d="M40.6406 58.6106C40.66 59.2904 40.6801 59.9703 40.7002 60.6493" stroke="black" stroke-width="0.77363" stroke-miterlimit="10" stroke-linecap="round" stroke-linejoin="round"/>
</g>
<path id="Vector_58" d="M42.9045 58.5651C42.9301 57.981 42.9556 57.3978 42.9804 56.8137" stroke="black" stroke-width="0.77363" stroke-miterlimit="10" stroke-linecap="round" stroke-linejoin="round"/>
</g>
<g id="Group_28">
<g id="Group_29">
<path id="Vector_59" d="M57.8782 51.0536C55.5209 51.1037 53.1621 51.0808 50.8057 50.9841" stroke="black" stroke-width="0.77363" stroke-miterlimit="10" stroke-linecap="round" stroke-linejoin="round"/>
<path id="Vector_60" d="M54.1919 51.0637C54.212 51.7436 54.2314 52.4234 54.2515 53.1024" stroke="black" stroke-width="0.77363" stroke-miterlimit="10" stroke-linecap="round" stroke-linejoin="round"/>
</g>
<path id="Vector_61" d="M56.4563 51.0179C56.4818 50.4339 56.5074 49.8507 56.5321 49.2666" stroke="black" stroke-width="0.77363" stroke-miterlimit="10" stroke-linecap="round" stroke-linejoin="round"/>
</g>
<g id="Group_30">
<g id="Group_31">
<path id="Vector_62" d="M89.6655 65.6774C92.0228 65.7274 94.3816 65.7045 96.738 65.6079" stroke="black" stroke-width="0.77363" stroke-miterlimit="10" stroke-linecap="round" stroke-linejoin="round"/>
<path id="Vector_63" d="M93.352 65.6875C93.3319 66.3673 93.3126 67.0472 93.2925 67.7262" stroke="black" stroke-width="0.77363" stroke-miterlimit="10" stroke-linecap="round" stroke-linejoin="round"/>
</g>
<path id="Vector_64" d="M91.0883 65.6417C91.0628 65.0577 91.0372 64.4744 91.0125 63.8904" stroke="black" stroke-width="0.77363" stroke-miterlimit="10" stroke-linecap="round" stroke-linejoin="round"/>
</g>
<g id="Group_32">
<g id="Group_33">
<path id="Vector_65" d="M91.012 57.8209C88.6547 57.7709 86.2959 57.7937 83.9395 57.8904" stroke="black" stroke-width="0.77363" stroke-miterlimit="10" stroke-linecap="round" stroke-linejoin="round"/>
<path id="Vector_66" d="M87.3257 57.8107C87.3458 57.1308 87.3651 56.451 87.3852 55.772" stroke="black" stroke-width="0.77363" stroke-miterlimit="10" stroke-linecap="round" stroke-linejoin="round"/>
</g>
<path id="Vector_67" d="M89.5898 57.8564C89.6154 58.4405 89.6409 59.0237 89.6657 59.6078" stroke="black" stroke-width="0.77363" stroke-miterlimit="10" stroke-linecap="round" stroke-linejoin="round"/>
</g>
<g id="Group_34">
<g id="Group_35">
<path id="Vector_68" d="M90.4639 51.0536C92.8211 51.1037 95.1799 51.0808 97.5364 50.9841" stroke="black" stroke-width="0.77363" stroke-miterlimit="10" stroke-linecap="round" stroke-linejoin="round"/>
<path id="Vector_69" d="M94.1504 51.0637C94.1303 51.7436 94.1109 52.4234 94.0908 53.1024" stroke="black" stroke-width="0.77363" stroke-miterlimit="10" stroke-linecap="round" stroke-linejoin="round"/>
</g>
<path id="Vector_70" d="M91.8866 51.0179C91.8611 50.4339 91.8355 49.8507 91.8108 49.2666" stroke="black" stroke-width="0.77363" stroke-miterlimit="10" stroke-linecap="round" stroke-linejoin="round"/>
</g>
<g id="Group_36">
<g id="Group_37">
<path id="Vector_71" d="M42.2127 45.2031C39.8554 45.2531 37.4966 45.2302 35.1401 45.1335" stroke="black" stroke-width="0.77363" stroke-miterlimit="10" stroke-linecap="round" stroke-linejoin="round"/>
<path id="Vector_72" d="M38.5264 45.2141C38.5465 45.894 38.5658 46.573 38.5859 47.2528" stroke="black" stroke-width="0.77363" stroke-miterlimit="10" stroke-linecap="round" stroke-linejoin="round"/>
</g>
<path id="Vector_73" d="M40.79 45.1673C40.8156 44.5833 40.8411 44.0001 40.8659 43.416" stroke="black" stroke-width="0.77363" stroke-miterlimit="10" stroke-linecap="round" stroke-linejoin="round"/>
</g>
<g id="Group_38">
<g id="Group_39">
<path id="Vector_74" d="M77.1116 15.9399C74.7543 15.9899 72.3955 15.967 70.0391 15.8704" stroke="black" stroke-width="0.77363" stroke-miterlimit="10" stroke-linecap="round" stroke-linejoin="round"/>
<path id="Vector_75" d="M73.4248 15.9509C73.4449 16.6308 73.4643 17.3106 73.4844 17.9896" stroke="black" stroke-width="0.77363" stroke-miterlimit="10" stroke-linecap="round" stroke-linejoin="round"/>
</g>
<path id="Vector_76" d="M75.6895 15.9042C75.715 15.3201 75.7405 14.7369 75.7653 14.1528" stroke="black" stroke-width="0.77363" stroke-miterlimit="10" stroke-linecap="round" stroke-linejoin="round"/>
</g>
<g id="Group_40">
<g id="Group_41">
<path id="Vector_77" d="M55.7644 27.9289C53.4072 27.9789 51.0484 27.956 48.6919 27.8594" stroke="black" stroke-width="0.77363" stroke-miterlimit="10" stroke-linecap="round" stroke-linejoin="round"/>
<path id="Vector_78" d="M52.0781 27.939C52.0975 28.6188 52.1176 29.2978 52.1377 29.9777" stroke="black" stroke-width="0.77363" stroke-miterlimit="10" stroke-linecap="round" stroke-linejoin="round"/>
</g>
<path id="Vector_79" d="M54.3418 27.8932C54.3673 27.3091 54.3929 26.7259 54.4176 26.1418" stroke="black" stroke-width="0.77363" stroke-miterlimit="10" stroke-linecap="round" stroke-linejoin="round"/>
</g>
<g id="Group_42">
<g id="Group_43">
<path id="Vector_80" d="M100.125 27.9289C97.768 27.9789 95.4092 27.956 93.0527 27.8594" stroke="black" stroke-width="0.77363" stroke-miterlimit="10" stroke-linecap="round" stroke-linejoin="round"/>
<path id="Vector_81" d="M96.4385 27.939C96.4586 28.6188 96.4779 29.2978 96.498 29.9777" stroke="black" stroke-width="0.77363" stroke-miterlimit="10" stroke-linecap="round" stroke-linejoin="round"/>
</g>
<path id="Vector_82" d="M98.7031 27.8932C98.7287 27.3091 98.7542 26.7259 98.7789 26.1418" stroke="black" stroke-width="0.77363" stroke-miterlimit="10" stroke-linecap="round" stroke-linejoin="round"/>
</g>
<g id="Group_44">
<g id="Group_45">
<path id="Vector_83" d="M23.5056 57.7023C21.1484 57.7523 18.7896 57.7294 16.4331 57.6328" stroke="black" stroke-width="0.77363" stroke-miterlimit="10" stroke-linecap="round" stroke-linejoin="round"/>
<path id="Vector_84" d="M19.8193 57.7124C19.8395 58.3923 19.8588 59.0721 19.8789 59.7511" stroke="black" stroke-width="0.77363" stroke-miterlimit="10" stroke-linecap="round" stroke-linejoin="round"/>
</g>
<path id="Vector_85" d="M22.0837 57.6666C22.1093 57.0826 22.1348 56.4993 22.1595 55.9153" stroke="black" stroke-width="0.77363" stroke-miterlimit="10" stroke-linecap="round" stroke-linejoin="round"/>
</g>
<g id="Group_46">
<g id="Group_47">
<path id="Vector_86" d="M26.7979 41.7833C29.1551 41.7333 31.5139 41.7561 33.8704 41.8528" stroke="black" stroke-width="0.77363" stroke-miterlimit="10" stroke-linecap="round" stroke-linejoin="round"/>
<path id="Vector_87" d="M30.4834 41.7731C30.4633 41.0932 30.4439 40.4134 30.4238 39.7344" stroke="black" stroke-width="0.77363" stroke-miterlimit="10" stroke-linecap="round" stroke-linejoin="round"/>
</g>
<path id="Vector_88" d="M28.2199 41.8188C28.1943 42.4029 28.1688 42.9861 28.144 43.5702" stroke="black" stroke-width="0.77363" stroke-miterlimit="10" stroke-linecap="round" stroke-linejoin="round"/>
</g>
<g id="Group_48">
<g id="Group_49">
<path id="Vector_89" d="M111.724 76.1083C109.367 76.1583 107.008 76.1355 104.651 76.0388" stroke="black" stroke-width="0.77363" stroke-miterlimit="10" stroke-linecap="round" stroke-linejoin="round"/>
<path id="Vector_90" d="M108.038 76.1184C108.058 76.7983 108.077 77.4781 108.097 78.1571" stroke="black" stroke-width="0.77363" stroke-miterlimit="10" stroke-linecap="round" stroke-linejoin="round"/>
</g>
<path id="Vector_91" d="M110.302 76.0726C110.328 75.4886 110.353 74.9053 110.378 74.3213" stroke="black" stroke-width="0.77363" stroke-miterlimit="10" stroke-linecap="round" stroke-linejoin="round"/>
</g>
<g id="Group_50">
<g id="Group_51">
<path id="Vector_92" d="M132.083 76.1083C129.726 76.1583 127.367 76.1355 125.011 76.0388" stroke="black" stroke-width="0.77363" stroke-miterlimit="10" stroke-linecap="round" stroke-linejoin="round"/>
<path id="Vector_93" d="M128.397 76.1184C128.418 76.7983 128.437 77.4781 128.457 78.1571" stroke="black" stroke-width="0.77363" stroke-miterlimit="10" stroke-linecap="round" stroke-linejoin="round"/>
</g>
<path id="Vector_94" d="M130.661 76.0726C130.687 75.4886 130.711 74.9053 130.737 74.3213" stroke="black" stroke-width="0.77363" stroke-miterlimit="10" stroke-linecap="round" stroke-linejoin="round"/>
</g>
<g id="Group_52">
<g id="Group_53">
<path id="Vector_95" d="M116.099 72.6885C118.456 72.6385 120.815 72.6614 123.172 72.7581" stroke="black" stroke-width="0.77363" stroke-miterlimit="10" stroke-linecap="round" stroke-linejoin="round"/>
<path id="Vector_96" d="M119.785 72.6783C119.765 71.9985 119.746 71.3195 119.726 70.6396" stroke="black" stroke-width="0.77363" stroke-miterlimit="10" stroke-linecap="round" stroke-linejoin="round"/>
</g>
<path id="Vector_97" d="M117.521 72.7241C117.496 73.3082 117.47 73.8914 117.445 74.4754" stroke="black" stroke-width="0.77363" stroke-miterlimit="10" stroke-linecap="round" stroke-linejoin="round"/>
</g>
<g id="Group_54">
<g id="Group_55">
<path id="Vector_98" d="M114.154 45.2031C111.796 45.2531 109.438 45.2302 107.081 45.1335" stroke="black" stroke-width="0.77363" stroke-miterlimit="10" stroke-linecap="round" stroke-linejoin="round"/>
<path id="Vector_99" d="M110.467 45.2141C110.487 45.894 110.506 46.573 110.526 47.2528" stroke="black" stroke-width="0.77363" stroke-miterlimit="10" stroke-linecap="round" stroke-linejoin="round"/>
</g>
<path id="Vector_100" d="M112.731 45.1673C112.756 44.5833 112.781 44.0001 112.807 43.416" stroke="black" stroke-width="0.77363" stroke-miterlimit="10" stroke-linecap="round" stroke-linejoin="round"/>
</g>
<g id="Group_56">
<g id="Group_57">
<path id="Vector_101" d="M133.823 58.8154C131.466 58.8654 129.107 58.8425 126.751 58.7458" stroke="black" stroke-width="0.77363" stroke-miterlimit="10" stroke-linecap="round" stroke-linejoin="round"/>
<path id="Vector_102" d="M130.137 58.8254C130.157 59.5053 130.177 60.1851 130.197 60.8641" stroke="black" stroke-width="0.77363" stroke-miterlimit="10" stroke-linecap="round" stroke-linejoin="round"/>
</g>
<path id="Vector_103" d="M132.401 58.7796C132.426 58.1956 132.451 57.6124 132.477 57.0283" stroke="black" stroke-width="0.77363" stroke-miterlimit="10" stroke-linecap="round" stroke-linejoin="round"/>
</g>
<g id="Group_58">
<g id="Group_59">
<path id="Vector_104" d="M131.514 45.2031C129.157 45.2531 126.798 45.2302 124.441 45.1335" stroke="black" stroke-width="0.77363" stroke-miterlimit="10" stroke-linecap="round" stroke-linejoin="round"/>
<path id="Vector_105" d="M127.828 45.2141C127.848 45.894 127.867 46.573 127.887 47.2528" stroke="black" stroke-width="0.77363" stroke-miterlimit="10" stroke-linecap="round" stroke-linejoin="round"/>
</g>
<path id="Vector_106" d="M130.092 45.1673C130.118 44.5833 130.143 44.0001 130.168 43.416" stroke="black" stroke-width="0.77363" stroke-miterlimit="10" stroke-linecap="round" stroke-linejoin="round"/>
</g>
<g id="Group_60">
<g id="Group_61">
<path id="Vector_107" d="M111.724 57.7021C109.367 57.7521 107.008 57.7292 104.651 57.6326" stroke="black" stroke-width="0.77363" stroke-miterlimit="10" stroke-linecap="round" stroke-linejoin="round"/>
<path id="Vector_108" d="M108.038 57.7122C108.058 58.392 108.077 59.0719 108.097 59.7509" stroke="black" stroke-width="0.77363" stroke-miterlimit="10" stroke-linecap="round" stroke-linejoin="round"/>
</g>
<path id="Vector_109" d="M110.302 57.6664C110.328 57.0823 110.353 56.4991 110.378 55.915" stroke="black" stroke-width="0.77363" stroke-miterlimit="10" stroke-linecap="round" stroke-linejoin="round"/>
</g>
<g id="Group_62">
<g id="Group_63">
<path id="Vector_110" d="M116.099 41.7833C118.456 41.7333 120.815 41.7561 123.172 41.8528" stroke="black" stroke-width="0.77363" stroke-miterlimit="10" stroke-linecap="round" stroke-linejoin="round"/>
<path id="Vector_111" d="M119.785 41.7731C119.765 41.0932 119.746 40.4134 119.726 39.7344" stroke="black" stroke-width="0.77363" stroke-miterlimit="10" stroke-linecap="round" stroke-linejoin="round"/>
</g>
<path id="Vector_112" d="M117.521 41.8188C117.496 42.4029 117.47 42.9861 117.445 43.5702" stroke="black" stroke-width="0.77363" stroke-miterlimit="10" stroke-linecap="round" stroke-linejoin="round"/>
</g>
<g id="Group_64">
<g id="Group_65">
<path id="Vector_113" d="M38.2246 33.4124C40.5819 33.3624 42.9407 33.3853 45.2971 33.4819" stroke="black" stroke-width="0.77363" stroke-miterlimit="10" stroke-linecap="round" stroke-linejoin="round"/>
<path id="Vector_114" d="M41.9111 33.4022C41.891 32.7224 41.8717 32.0425 41.8516 31.3635" stroke="black" stroke-width="0.77363" stroke-miterlimit="10" stroke-linecap="round" stroke-linejoin="round"/>
</g>
<path id="Vector_115" d="M39.6466 33.448C39.6211 34.0321 39.5963 34.6153 39.5708 35.1993" stroke="black" stroke-width="0.77363" stroke-miterlimit="10" stroke-linecap="round" stroke-linejoin="round"/>
</g>
<g id="Group_66">
<g id="Group_67">
<path id="Vector_116" d="M103.545 33.4122C105.902 33.3622 108.261 33.385 110.617 33.4817" stroke="black" stroke-width="0.77363" stroke-miterlimit="10" stroke-linecap="round" stroke-linejoin="round"/>
<path id="Vector_117" d="M107.231 33.402C107.211 32.7221 107.192 32.0423 107.172 31.3633" stroke="black" stroke-width="0.77363" stroke-miterlimit="10" stroke-linecap="round" stroke-linejoin="round"/>
</g>
<path id="Vector_118" d="M104.967 33.4478C104.941 34.0318 104.917 34.615 104.891 35.1991" stroke="black" stroke-width="0.77363" stroke-miterlimit="10" stroke-linecap="round" stroke-linejoin="round"/>
</g>
<g id="Group_68">
<g id="Group_69">
<path id="Vector_119" d="M59.5205 21.5311C61.8778 21.4811 64.2366 21.5039 66.593 21.6006" stroke="black" stroke-width="0.77363" stroke-miterlimit="10" stroke-linecap="round" stroke-linejoin="round"/>
<path id="Vector_120" d="M63.2068 21.5201C63.1867 20.8403 63.1673 20.1604 63.1472 19.4814" stroke="black" stroke-width="0.77363" stroke-miterlimit="10" stroke-linecap="round" stroke-linejoin="round"/>
</g>
<path id="Vector_121" d="M60.9425 21.5669C60.917 22.151 60.8915 22.7342 60.8667 23.3182" stroke="black" stroke-width="0.77363" stroke-miterlimit="10" stroke-linecap="round" stroke-linejoin="round"/>
</g>
<g id="Group_70">
<g id="Group_71">
<path id="Vector_122" d="M83.3428 21.5311C85.7 21.4811 88.0588 21.5039 90.4153 21.6006" stroke="black" stroke-width="0.77363" stroke-miterlimit="10" stroke-linecap="round" stroke-linejoin="round"/>
<path id="Vector_123" d="M87.029 21.5201C87.0089 20.8403 86.9896 20.1604 86.9695 19.4814" stroke="black" stroke-width="0.77363" stroke-miterlimit="10" stroke-linecap="round" stroke-linejoin="round"/>
</g>
<path id="Vector_124" d="M84.7653 21.5669C84.7397 22.151 84.7142 22.7342 84.6895 23.3182" stroke="black" stroke-width="0.77363" stroke-miterlimit="10" stroke-linecap="round" stroke-linejoin="round"/>
</g>
<path id="Vector_125" d="M53.3936 37.3125H94.8052" stroke="black" stroke-width="0.77363" stroke-miterlimit="10" stroke-linecap="round" stroke-linejoin="round"/>
<path id="Vector_126" d="M57.3301 34.7764H90.4639" stroke="black" stroke-width="0.77363" stroke-miterlimit="10" stroke-linecap="round" stroke-linejoin="round"/>
<path id="Vector_127" d="M61.4688 32.3833H86.6009" stroke="black" stroke-width="0.77363" stroke-miterlimit="10" stroke-linecap="round" stroke-linejoin="round"/>
<path id="Vector_128" d="M65.2676 29.9775H83.3426" stroke="black" stroke-width="0.77363" stroke-miterlimit="10" stroke-linecap="round" stroke-linejoin="round"/>
<path id="Vector_129" d="M68.9248 27.8591H79.5367" stroke="black" stroke-width="0.77363" stroke-miterlimit="10" stroke-linecap="round" stroke-linejoin="round"/>
</g>
</svg>
