<svg width="39" height="40" viewBox="0 0 39 40" fill="none" xmlns="http://www.w3.org/2000/svg">
<path d="M36.8932 25.0952H25.8058V13.8602C25.8058 13.7572 25.7649 13.6584 25.6921 13.5856C25.6192 13.5128 25.5205 13.4719 25.4175 13.4719H14.3417V1.96507C14.3417 1.86207 14.3008 1.7633 14.228 1.69047C14.1552 1.61764 14.0564 1.57672 13.9534 1.57672H2.4893C2.3863 1.57672 2.28753 1.61764 2.2147 1.69047C2.14187 1.7633 2.10095 1.86207 2.10095 1.96507V37.1107C2.10095 37.2137 2.14187 37.3125 2.2147 37.3853C2.28753 37.4581 2.3863 37.4991 2.4893 37.4991H36.8932C36.9962 37.4991 37.095 37.4581 37.1678 37.3853C37.2406 37.3125 37.2815 37.2137 37.2815 37.1107V25.4835C37.2815 25.3805 37.2406 25.2817 37.1678 25.2089C37.095 25.1361 36.9962 25.0952 36.8932 25.0952ZM2.87765 2.35342H13.565V36.7224H2.87765V2.35342ZM14.3417 14.2486H25.0291V36.7224H14.3417V14.2486ZM36.5048 36.7224H25.8058V25.8719H36.5048V36.7224Z" fill="#F1EFEF"/>
<path d="M12.233 16.5786C12.13 16.5786 12.0312 16.6195 11.9583 16.6924C11.8855 16.7652 11.8446 16.864 11.8446 16.967V22.6446C11.8446 22.7476 11.8855 22.8464 11.9583 22.9192C12.0312 22.9921 12.13 23.033 12.233 23.033C12.336 23.033 12.4347 22.9921 12.5076 22.9192C12.5804 22.8464 12.6213 22.7476 12.6213 22.6446V16.967C12.6213 16.864 12.5804 16.7652 12.5076 16.6924C12.4347 16.6195 12.336 16.5786 12.233 16.5786Z" fill="#F1EFEF"/>
<path d="M23.4485 21.965C23.3455 21.965 23.2468 22.0059 23.1739 22.0788C23.1011 22.1516 23.0602 22.2504 23.0602 22.3534V28.0349C23.0602 28.1379 23.1011 28.2367 23.1739 28.3095C23.2468 28.3824 23.3455 28.4233 23.4485 28.4233C23.5515 28.4233 23.6503 28.3824 23.7231 28.3095C23.796 28.2367 23.8369 28.1379 23.8369 28.0349V22.3534C23.8369 22.2504 23.796 22.1516 23.7231 22.0788C23.6503 22.0059 23.5515 21.965 23.4485 21.965Z" fill="#F1EFEF"/>
<path d="M34.8078 34.5281C34.9108 34.5281 35.0096 34.4872 35.0824 34.4144C35.1552 34.3416 35.1961 34.2428 35.1961 34.1398V28.4582C35.1961 28.3552 35.1552 28.2565 35.0824 28.1836C35.0096 28.1108 34.9108 28.0699 34.8078 28.0699C34.7048 28.0699 34.606 28.1108 34.5332 28.1836C34.4603 28.2565 34.4194 28.3552 34.4194 28.4582V34.1398C34.4194 34.2428 34.4603 34.3416 34.5332 34.4144C34.606 34.4872 34.7048 34.5281 34.8078 34.5281Z" fill="#F1EFEF"/>
</svg>
