<svg width="41" height="40" viewBox="0 0 41 40" fill="none" xmlns="http://www.w3.org/2000/svg">
<g clip-path="url(#clip0_171_8680)">
<path d="M3.0301 2.8274H7.24928L7.25476 2.82192L10.0986 0H0.180786L3.02462 2.82192L3.0301 2.8274Z" fill="#EFEFEF" stroke="#121212" stroke-width="0.533333"/>
<path d="M2.8274 2.98631L0 0.18631V10.0986L2.8274 7.29864V2.98631Z" fill="#EFEFEF" stroke="#121212" stroke-width="0.533333"/>
<path d="M10.0986 10.2849L7.25475 7.46301H3.02461L0.180786 10.2849H1.35886V29.8246H0.180786L3.02461 32.6466H7.25475L10.0986 29.8246H8.92051V10.2849H10.0986ZM7.90681 29.8246H2.42736V10.2849H7.90681V29.8246Z" fill="#EFEFEF" stroke="#121212" stroke-width="0.533333"/>
<path d="M33.1507 2.8274H37.3754L37.3808 2.82192L40.2247 0H30.3014L33.1452 2.82192L33.1507 2.8274Z" fill="#EFEFEF" stroke="#121212" stroke-width="0.533333"/>
<path d="M7.45752 2.98082V7.29863L10.2849 10.0986V8.90962H30.1205V10.0986L32.9479 7.29863V2.99179L30.1205 0.191795V1.35892H10.2849V0.18631L7.45752 2.98082ZM30.126 2.37809V7.85754H10.2849V2.37809H30.1205H30.126Z" fill="#EFEFEF" stroke="#121212" stroke-width="0.533333"/>
<path d="M40.2192 10.2849L37.3754 7.46301H33.1452L30.3014 10.2849H31.4302V29.8246H30.3014L33.1452 32.6466H37.3754L40.2192 29.8246H38.9918V10.2849H40.2192ZM37.9617 29.8246H32.4822V10.2849H37.9617V29.8246Z" fill="#EFEFEF" stroke="#121212" stroke-width="0.533333"/>
<path d="M37.5781 2.98082V7.3041L40.4055 10.1041V0.180817L37.5781 2.98082Z" fill="#EFEFEF" stroke="#121212" stroke-width="0.533333"/>
<path d="M2.8274 32.8164L0 30.011V39.9233L2.8274 37.1233V32.8164Z" fill="#EFEFEF" stroke="#121212" stroke-width="0.533333"/>
<path d="M7.24928 37.2822H3.0301L3.02462 37.2877L0.180786 40.1096H10.0986L7.25476 37.2877L7.24928 37.2822Z" fill="#EFEFEF" stroke="#121212" stroke-width="0.533333"/>
<path d="M32.9479 37.1233V32.8165L30.1205 30.0165V31.1836H10.2849V30.011L7.45752 32.811V37.1288L10.2849 39.9288V38.7397H30.1205V39.9288L32.9479 37.1233ZM10.2795 37.7096V32.2301H30.1205V37.7096H10.2849H10.2795Z" fill="#EFEFEF" stroke="#121212" stroke-width="0.533333"/>
<path d="M37.3754 37.2822H33.1507L33.1452 37.2877L30.3014 40.1096H40.2247L37.3808 37.2877L37.3754 37.2822Z" fill="#EFEFEF" stroke="#121212" stroke-width="0.533333"/>
<path d="M37.5781 37.1288L40.4055 39.9288V30.0055L37.5781 32.811V37.1288Z" fill="#EFEFEF" stroke="#121212" stroke-width="0.533333"/>
</g>
<defs>
<clipPath id="clip0_171_8680">
<rect width="40.5479" height="40" fill="white"/>
</clipPath>
</defs>
</svg>
