<svg width="25" height="25" viewBox="0 0 25 25" fill="none" xmlns="http://www.w3.org/2000/svg">
<g clip-path="url(#clip0_123_2705)">
<path d="M17.4964 1.6665H7.50428C4.28013 1.6665 1.66699 4.2801 1.66699 7.50425V17.4954C1.66699 20.7196 4.28059 23.3332 7.50474 23.3332H17.4959C20.7201 23.3332 23.3337 20.7196 23.3337 17.4954V7.50425C23.3337 4.2801 20.7205 1.6665 17.4964 1.6665Z" stroke="#030303" stroke-width="1.66667" stroke-miterlimit="10"/>
<path d="M12.4997 16.6668C14.8009 16.6668 16.6663 14.8013 16.6663 12.5002C16.6663 10.199 14.8009 8.3335 12.4997 8.3335C10.1985 8.3335 8.33301 10.199 8.33301 12.5002C8.33301 14.8013 10.1985 16.6668 12.4997 16.6668Z" stroke="#030303" stroke-width="1.66667" stroke-miterlimit="10"/>
<path d="M19.1663 6.66667C19.6266 6.66667 19.9997 6.29357 19.9997 5.83333C19.9997 5.3731 19.6266 5 19.1663 5C18.7061 5 18.333 5.3731 18.333 5.83333C18.333 6.29357 18.7061 6.66667 19.1663 6.66667Z" fill="#030303"/>
</g>
<defs>
<clipPath id="clip0_123_2705">
<rect width="25" height="25" fill="white"/>
</clipPath>
</defs>
</svg>
