<svg width="47" height="47" viewBox="0 0 47 47" fill="none" xmlns="http://www.w3.org/2000/svg">
<path d="M44.7597 21.6052L42.2076 15.225C42.0447 14.8202 41.7645 14.4734 41.4029 14.2291C41.0414 13.9848 40.615 13.8543 40.1787 13.8542H33.1459V11.6667C33.1459 11.4733 33.0691 11.2878 32.9323 11.1511C32.7956 11.0143 32.6101 10.9375 32.4167 10.9375H4.70837C4.12821 10.9375 3.57181 11.168 3.16158 11.5782C2.75134 11.9884 2.52087 12.5448 2.52087 13.125V33.5417C2.52087 34.1218 2.75134 34.6782 3.16158 35.0885C3.57181 35.4987 4.12821 35.7292 4.70837 35.7292H8.40707C8.58318 36.9432 9.19064 38.0532 10.1183 38.856C11.0459 39.6588 12.2316 40.1006 13.4584 40.1006C14.6851 40.1006 15.8709 39.6588 16.7985 38.856C17.7261 38.0532 18.3336 36.9432 18.5097 35.7292H28.8237C28.9998 36.9432 29.6073 38.0532 30.5349 38.856C31.4626 39.6588 32.6483 40.1006 33.875 40.1006C35.1018 40.1006 36.2875 39.6588 37.2151 38.856C38.1428 38.0532 38.7502 36.9432 38.9263 35.7292H42.625C43.2052 35.7292 43.7616 35.4987 44.1718 35.0885C44.5821 34.6782 44.8125 34.1218 44.8125 33.5417V21.875C44.8122 21.7825 44.7942 21.691 44.7597 21.6052ZM33.1459 15.3125H40.1787C40.3245 15.3122 40.4671 15.3557 40.588 15.4372C40.7088 15.5188 40.8025 15.6347 40.8568 15.7701L43.006 21.1458H33.1459V15.3125ZM3.97921 13.125C3.97921 12.9316 4.05603 12.7461 4.19278 12.6094C4.32952 12.4727 4.51499 12.3958 4.70837 12.3958H31.6875V25.5208H3.97921V13.125ZM13.4584 38.6458C12.7373 38.6458 12.0324 38.432 11.4329 38.0314C10.8333 37.6308 10.366 37.0614 10.0901 36.3952C9.81412 35.729 9.74192 34.996 9.88259 34.2887C10.0233 33.5815 10.3705 32.9319 10.8804 32.422C11.3903 31.9121 12.0399 31.5649 12.7471 31.4242C13.4543 31.2835 14.1874 31.3557 14.8536 31.6317C15.5198 31.9076 16.0892 32.3749 16.4898 32.9745C16.8904 33.574 17.1042 34.2789 17.1042 35C17.1042 35.4788 17.0099 35.9529 16.8267 36.3952C16.6435 36.8375 16.3749 37.2394 16.0364 37.578C15.6978 37.9165 15.2959 38.1851 14.8536 38.3683C14.4112 38.5515 13.9372 38.6458 13.4584 38.6458ZM28.8237 34.2708H18.5097C18.3336 33.0568 17.7261 31.9468 16.7985 31.144C15.8709 30.3412 14.6851 29.8994 13.4584 29.8994C12.2316 29.8994 11.0459 30.3412 10.1183 31.144C9.19064 31.9468 8.58318 33.0568 8.40707 34.2708H4.70837C4.51499 34.2708 4.32952 34.194 4.19278 34.0573C4.05603 33.9205 3.97921 33.7351 3.97921 33.5417V26.9792H31.6875V30.3898C30.9277 30.7512 30.2688 31.2945 29.7693 31.9715C29.2697 32.6485 28.9449 33.4383 28.8237 34.2708ZM33.875 38.6458C33.154 38.6458 32.4491 38.432 31.8495 38.0314C31.25 37.6308 30.7827 37.0614 30.5067 36.3952C30.2308 35.729 30.1586 34.996 30.2993 34.2887C30.4399 33.5815 30.7872 32.9319 31.297 32.422C31.8069 31.9121 32.4566 31.5649 33.1638 31.4242C33.871 31.2835 34.6041 31.3557 35.2702 31.6317C35.9364 31.9076 36.5058 32.3749 36.9064 32.9745C37.3071 33.574 37.5209 34.2789 37.5209 35C37.5209 35.9669 37.1368 36.8943 36.453 37.578C35.7693 38.2617 34.842 38.6458 33.875 38.6458ZM43.3542 33.5417C43.3542 33.7351 43.2774 33.9205 43.1406 34.0573C43.0039 34.194 42.8184 34.2708 42.625 34.2708H38.9263C38.7328 32.9312 38.0151 31.7233 36.9311 30.9128C35.8471 30.1022 34.4855 29.7554 33.1459 29.9487V22.6042H43.3542V33.5417Z" fill="#EFEFEF"/>
</svg>
