<svg width="25" height="25" viewBox="0 0 25 25" fill="none" xmlns="http://www.w3.org/2000/svg">
<g clip-path="url(#clip0_123_2701)">
<path d="M12.4997 24.1668C10.9676 24.1668 9.4505 23.8651 8.03503 23.2788C6.61957 22.6925 5.33345 21.8331 4.2501 20.7497C3.16675 19.6664 2.30739 18.3803 1.72108 16.9648C1.13478 15.5493 0.833008 14.0323 0.833008 12.5002C0.833008 10.9681 1.13478 9.45099 1.72108 8.03552C2.30739 6.62006 3.16675 5.33393 4.2501 4.25058C5.33345 3.16723 6.61957 2.30787 8.03503 1.72157C9.4505 1.13526 10.9676 0.833496 12.4997 0.833496C15.5939 0.833496 18.5613 2.06266 20.7493 4.25058C22.9372 6.43851 24.1663 9.40597 24.1663 12.5002C24.1663 15.5944 22.9372 18.5618 20.7493 20.7497C18.5613 22.9377 15.5939 24.1668 12.4997 24.1668ZM12.4997 24.1668V10.8335C12.4997 9.94944 12.8509 9.10159 13.476 8.47647C14.1011 7.85135 14.949 7.50016 15.833 7.50016H16.6663M8.33301 14.1668H16.6663" stroke="#030303" stroke-width="1.66667"/>
</g>
<defs>
<clipPath id="clip0_123_2701">
<rect width="25" height="25" fill="white"/>
</clipPath>
</defs>
</svg>
