<svg width="173" height="83" viewBox="0 0 173 83" fill="none" xmlns="http://www.w3.org/2000/svg">
<g id="Group 14">
<g id="Group">
<g id="Group_2">
<g id="Group_3">
<path id="Vector" d="M74.4441 73.6164V42.0098H14.356V73.6164" stroke="black" stroke-width="1.38802" stroke-miterlimit="10" stroke-linecap="round" stroke-linejoin="round"/>
<path id="Vector_2" d="M30.4106 77.6589H56.5693" stroke="black" stroke-width="1.38802" stroke-miterlimit="10" stroke-linecap="round" stroke-linejoin="round"/>
<path id="Vector_3" d="M81.219 39.2081L68.9392 1H21.2545L6.4165 39.6071L81.219 39.2081Z" stroke="black" stroke-width="1.38802" stroke-miterlimit="10" stroke-linecap="round" stroke-linejoin="round"/>
<path id="Vector_4" d="M74.4438 42.0097H78.8175L81.2188 39.208" stroke="black" stroke-width="1.38802" stroke-miterlimit="10" stroke-linecap="round" stroke-linejoin="round"/>
<path id="Vector_5" d="M6.4165 39.6072L9.21059 42.0098H14.356" stroke="black" stroke-width="1.38802" stroke-miterlimit="10" stroke-linecap="round" stroke-linejoin="round"/>
<g id="Group_4">
<path id="Vector_6" d="M44.991 6.13766L62.0623 22.5663L57.5561 22.5697L44.8467 10.4697L31.3024 22.4414C29.8921 22.5399 26.5845 22.5531 26.5845 22.5531L45.0313 6.13696C45.0313 6.13696 44.8709 9.28847 44.8522 10.571" stroke="black" stroke-width="1.38802" stroke-miterlimit="10" stroke-linecap="round" stroke-linejoin="round"/>
</g>
<path id="Vector_7" d="M34.1763 19.9014V31.9522H55.3082V20.4295" stroke="black" stroke-width="1.38802" stroke-miterlimit="10" stroke-linecap="round" stroke-linejoin="round"/>
<g id="Group_5">
<path id="Vector_8" d="M49.74 74.2841C49.8337 67.2115 49.7504 51.7122 49.7504 51.7122H37.8634C37.8634 51.7122 37.9446 67.3274 37.8516 74.4007" stroke="black" stroke-width="1.38802" stroke-miterlimit="10" stroke-linecap="round" stroke-linejoin="round"/>
<path id="Vector_9" d="M40.5164 64.5327C41.6831 64.718 42.1411 62.695 40.8732 62.6353C39.8162 62.586 39.3769 64.3516 40.5164 64.5327Z" stroke="black" stroke-width="1.38802" stroke-miterlimit="10" stroke-linecap="round" stroke-linejoin="round"/>
</g>
<path id="Vector_10" d="M52.8572 74.4004H34.123V77.6581H52.8572V74.4004Z" stroke="black" stroke-width="1.38802" stroke-miterlimit="10" stroke-linecap="round" stroke-linejoin="round"/>
<path id="Vector_11" d="M30.4112 82.2075H56.5698V77.6583H30.4112V82.2075Z" stroke="black" stroke-width="1.38802" stroke-miterlimit="10" stroke-linecap="round" stroke-linejoin="round"/>
<g id="Group_6">
<path id="Vector_12" d="M39.42 22.5789C39.6067 20.6509 41.0454 18.9569 42.8491 18.2504C44.4884 17.6091 46.4982 17.7743 47.8238 18.9326C48.8898 19.8639 49.4006 21.3137 49.4505 22.7281C49.5158 24.5894 48.7544 26.5577 47.1895 27.5681C44.0775 29.5787 39.0779 26.1142 39.42 22.5789Z" stroke="black" stroke-width="1.38802" stroke-miterlimit="10" stroke-linecap="round" stroke-linejoin="round"/>
<path id="Vector_13" d="M44.7412 18.0193C44.7502 21.3054 44.6482 24.5923 44.4365 27.8721" stroke="black" stroke-width="1.38802" stroke-miterlimit="10" stroke-linecap="round" stroke-linejoin="round"/>
<path id="Vector_14" d="M39.4038 22.9072C42.6566 22.6254 46.1905 22.9523 49.4552 23.0196" stroke="black" stroke-width="1.38802" stroke-miterlimit="10" stroke-linecap="round" stroke-linejoin="round"/>
</g>
<g id="Group_7">
<path id="Vector_15" d="M32.7969 64.4672L19.7148 64.53L19.7234 66.3171L32.8055 66.2543L32.7969 64.4672Z" stroke="black" stroke-width="1.38802" stroke-miterlimit="10" stroke-linecap="round" stroke-linejoin="round"/>
<path id="Vector_16" d="M32.8082 48.5258L19.7261 48.5886L19.7347 50.3757L32.8168 50.3129L32.8082 48.5258Z" stroke="black" stroke-width="1.38802" stroke-miterlimit="10" stroke-linecap="round" stroke-linejoin="round"/>
<path id="Vector_17" d="M31.316 64.4721C31.3749 60.02 31.257 50.3469 31.257 50.3469L21.0918 50.3955C21.0918 50.3955 21.2077 60.0693 21.1494 64.5207" stroke="black" stroke-width="1.38802" stroke-miterlimit="10" stroke-linecap="round" stroke-linejoin="round"/>
<path id="Vector_18" d="M21.1436 57.1538L31.3191 57.1052" stroke="black" stroke-width="1.38802" stroke-miterlimit="10" stroke-linecap="round" stroke-linejoin="round"/>
<path id="Vector_19" d="M26.2658 64.4195L26.1992 50.4414" stroke="black" stroke-width="1.38802" stroke-miterlimit="10" stroke-linecap="round" stroke-linejoin="round"/>
</g>
<g id="Group_8">
<path id="Vector_20" d="M69.6968 64.4501L56.6147 64.5796L56.6324 66.3667L69.7145 66.2372L69.6968 64.4501Z" stroke="black" stroke-width="1.38802" stroke-miterlimit="10" stroke-linecap="round" stroke-linejoin="round"/>
<path id="Vector_21" d="M69.6241 48.5106L56.542 48.6401L56.5597 50.4272L69.6418 50.2977L69.6241 48.5106Z" stroke="black" stroke-width="1.38802" stroke-miterlimit="10" stroke-linecap="round" stroke-linejoin="round"/>
<path id="Vector_22" d="M68.2104 64.4462C68.2465 59.9942 68.0792 50.321 68.0792 50.321L57.9141 50.4217C57.9141 50.4217 58.0792 60.0948 58.0438 64.5469" stroke="black" stroke-width="1.38802" stroke-miterlimit="10" stroke-linecap="round" stroke-linejoin="round"/>
<path id="Vector_23" d="M58.001 57.18L68.1758 57.0793" stroke="black" stroke-width="1.38802" stroke-miterlimit="10" stroke-linecap="round" stroke-linejoin="round"/>
<path id="Vector_24" d="M63.1601 64.4193L63.022 50.4419" stroke="black" stroke-width="1.38802" stroke-miterlimit="10" stroke-linecap="round" stroke-linejoin="round"/>
</g>
<path id="Vector_25" d="M27.3777 73.6165H13.2157C11.6535 73.6165 10.3862 74.883 10.3862 76.446V82.2083H30.2065V76.446C30.2065 74.883 28.9399 73.6165 27.3777 73.6165Z" stroke="black" stroke-width="1.38802" stroke-miterlimit="10" stroke-linecap="round" stroke-linejoin="round"/>
<path id="Vector_26" d="M73.5608 73.6165H59.3988C57.8359 73.6165 56.5693 74.883 56.5693 76.446V82.2083H76.3896V76.446C76.3896 74.883 75.123 73.6165 73.5608 73.6165Z" stroke="black" stroke-width="1.38802" stroke-miterlimit="10" stroke-linecap="round" stroke-linejoin="round"/>
</g>
<path id="Vector_27" d="M29.6553 19.7986C29.9599 20.7612 30.3805 21.687 30.9052 22.5496" stroke="black" stroke-width="0.69401" stroke-miterlimit="10" stroke-linecap="round" stroke-linejoin="round"/>
<path id="Vector_28" d="M31.292 18.3726C31.6328 19.4281 31.9957 20.4761 32.3809 21.5157" stroke="black" stroke-width="0.69401" stroke-miterlimit="10" stroke-linecap="round" stroke-linejoin="round"/>
<path id="Vector_29" d="M33.0785 17.2023C33.0424 17.1558 33.0063 17.11 32.9702 17.0635C33.2416 18.1864 33.5775 19.2933 33.9758 20.3781" stroke="black" stroke-width="0.69401" stroke-miterlimit="10" stroke-linecap="round" stroke-linejoin="round"/>
<path id="Vector_30" d="M34.3428 15.8755C34.578 16.9797 34.8862 18.0678 35.2658 19.1304" stroke="black" stroke-width="0.69401" stroke-miterlimit="10" stroke-linecap="round" stroke-linejoin="round"/>
<path id="Vector_31" d="M35.8267 14.5701C36.0043 15.7242 36.2951 16.8603 36.6942 17.9582" stroke="black" stroke-width="0.69401" stroke-miterlimit="10" stroke-linecap="round" stroke-linejoin="round"/>
<path id="Vector_32" d="M37.1519 13.4187C37.5107 14.3979 37.8001 15.4022 38.0194 16.4217" stroke="black" stroke-width="0.69401" stroke-miterlimit="10" stroke-linecap="round" stroke-linejoin="round"/>
<path id="Vector_33" d="M38.4624 12.2854C38.6595 13.3424 38.9454 14.3827 39.3146 15.3925" stroke="black" stroke-width="0.69401" stroke-miterlimit="10" stroke-linecap="round" stroke-linejoin="round"/>
<path id="Vector_34" d="M39.6826 10.9492C40.1289 11.8584 40.4717 12.8175 40.7035 13.803" stroke="black" stroke-width="0.69401" stroke-miterlimit="10" stroke-linecap="round" stroke-linejoin="round"/>
<path id="Vector_35" d="M41.2417 9.7876C41.5582 10.9063 41.9121 12.0147 42.3028 13.1091" stroke="black" stroke-width="0.69401" stroke-miterlimit="10" stroke-linecap="round" stroke-linejoin="round"/>
<path id="Vector_36" d="M42.5986 8.49609C42.7187 9.55238 42.9887 10.5913 43.3988 11.572" stroke="black" stroke-width="0.69401" stroke-miterlimit="10" stroke-linecap="round" stroke-linejoin="round"/>
<path id="Vector_37" d="M45.376 11.014C45.9569 10.2249 46.5377 9.43509 47.1186 8.646" stroke="black" stroke-width="0.69401" stroke-miterlimit="10" stroke-linecap="round" stroke-linejoin="round"/>
<path id="Vector_38" d="M46.519 11.9224C47.0992 11.1166 47.7107 10.3338 48.3519 9.57593" stroke="black" stroke-width="0.69401" stroke-miterlimit="10" stroke-linecap="round" stroke-linejoin="round"/>
<path id="Vector_39" d="M47.8511 12.9607C48.4167 12.2389 48.9823 11.5164 49.5479 10.7947" stroke="black" stroke-width="0.69401" stroke-miterlimit="10" stroke-linecap="round" stroke-linejoin="round"/>
<path id="Vector_40" d="M48.8408 14.0591C49.4009 13.2964 49.9609 12.5337 50.521 11.771" stroke="black" stroke-width="0.69401" stroke-miterlimit="10" stroke-linecap="round" stroke-linejoin="round"/>
<path id="Vector_41" d="M49.7983 14.9496C50.4854 14.2833 51.0836 13.5255 51.5715 12.7017" stroke="black" stroke-width="0.69401" stroke-miterlimit="10" stroke-linecap="round" stroke-linejoin="round"/>
<path id="Vector_42" d="M50.9478 15.9149C51.5744 15.2147 52.1539 14.4721 52.6821 13.6948" stroke="black" stroke-width="0.69401" stroke-miterlimit="10" stroke-linecap="round" stroke-linejoin="round"/>
<path id="Vector_43" d="M52.3135 17.3987C52.9006 16.6443 53.5321 15.9232 54.2026 15.2417" stroke="black" stroke-width="0.69401" stroke-miterlimit="10" stroke-linecap="round" stroke-linejoin="round"/>
<path id="Vector_44" d="M53.5083 18.4745C54.1058 17.7513 54.7291 17.0497 55.378 16.3723" stroke="black" stroke-width="0.69401" stroke-miterlimit="10" stroke-linecap="round" stroke-linejoin="round"/>
<path id="Vector_45" d="M54.6558 19.4856C55.3373 18.7889 56.0181 18.0921 56.6996 17.3953" stroke="black" stroke-width="0.69401" stroke-miterlimit="10" stroke-linecap="round" stroke-linejoin="round"/>
<path id="Vector_46" d="M55.7451 20.7813C56.5293 20.104 57.3143 19.4266 58.0992 18.7493" stroke="black" stroke-width="0.69401" stroke-miterlimit="10" stroke-linecap="round" stroke-linejoin="round"/>
<path id="Vector_47" d="M56.9458 21.8911C57.7502 21.2929 58.533 20.6655 59.2923 20.0117" stroke="black" stroke-width="0.69401" stroke-miterlimit="10" stroke-linecap="round" stroke-linejoin="round"/>
<path id="Vector_48" d="M58.6865 22.4587C59.2952 21.9951 59.8483 21.4572 60.3286 20.8611" stroke="black" stroke-width="0.69401" stroke-miterlimit="10" stroke-linecap="round" stroke-linejoin="round"/>
<path id="Vector_49" d="M8.68457 41.6691C9.18079 40.9876 9.677 40.3068 10.1739 39.6252" stroke="black" stroke-width="0.69401" stroke-miterlimit="10" stroke-linecap="round" stroke-linejoin="round"/>
<path id="Vector_50" d="M10.2754 41.9014C10.9222 41.1574 11.5683 40.4141 12.2151 39.6702" stroke="black" stroke-width="0.69401" stroke-miterlimit="10" stroke-linecap="round" stroke-linejoin="round"/>
<path id="Vector_51" d="M12.4917 41.8106C13.0303 41.043 13.65 40.3323 14.3378 39.6938" stroke="black" stroke-width="0.69401" stroke-miterlimit="10" stroke-linecap="round" stroke-linejoin="round"/>
<path id="Vector_52" d="M14.5015 41.726C15.0775 41.0653 15.6528 40.4046 16.2289 39.7439" stroke="black" stroke-width="0.69401" stroke-miterlimit="10" stroke-linecap="round" stroke-linejoin="round"/>
<path id="Vector_53" d="M16.2178 41.9057C16.7598 41.1825 17.3324 40.483 17.9341 39.8091" stroke="black" stroke-width="0.69401" stroke-miterlimit="10" stroke-linecap="round" stroke-linejoin="round"/>
<path id="Vector_54" d="M18.3247 41.9113C18.8466 41.1576 19.4115 40.433 20.016 39.7439" stroke="black" stroke-width="0.69401" stroke-miterlimit="10" stroke-linecap="round" stroke-linejoin="round"/>
<path id="Vector_55" d="M19.9448 41.9495C20.4924 41.2659 20.9976 40.5483 21.4571 39.8022" stroke="black" stroke-width="0.69401" stroke-miterlimit="10" stroke-linecap="round" stroke-linejoin="round"/>
<path id="Vector_56" d="M21.4312 42.0279C22.1453 41.2936 22.8046 40.5059 23.4014 39.6738" stroke="black" stroke-width="0.69401" stroke-miterlimit="10" stroke-linecap="round" stroke-linejoin="round"/>
<path id="Vector_57" d="M23.4077 41.9313C24.0566 41.2324 24.6528 40.485 25.1906 39.698" stroke="black" stroke-width="0.69401" stroke-miterlimit="10" stroke-linecap="round" stroke-linejoin="round"/>
<path id="Vector_58" d="M25.4019 41.9542C25.8884 41.2546 26.3749 40.5558 26.8614 39.8562" stroke="black" stroke-width="0.69401" stroke-miterlimit="10" stroke-linecap="round" stroke-linejoin="round"/>
<path id="Vector_59" d="M27.4451 41.8841C27.4146 41.8751 27.3841 41.8661 27.3535 41.8571C27.8504 41.1332 28.3473 40.4094 28.8443 39.6848" stroke="black" stroke-width="0.69401" stroke-miterlimit="10" stroke-linecap="round" stroke-linejoin="round"/>
<path id="Vector_60" d="M29.4224 41.853C29.8513 41.0882 30.3558 40.3657 30.9263 39.6995" stroke="black" stroke-width="0.69401" stroke-miterlimit="10" stroke-linecap="round" stroke-linejoin="round"/>
<path id="Vector_61" d="M31.3008 41.8591C31.7963 41.0187 32.3841 40.2331 33.0525 39.5217" stroke="black" stroke-width="0.69401" stroke-miterlimit="10" stroke-linecap="round" stroke-linejoin="round"/>
<path id="Vector_62" d="M33.4688 41.8362C34.0177 41.1394 34.5667 40.4419 35.1156 39.7451" stroke="black" stroke-width="0.69401" stroke-miterlimit="10" stroke-linecap="round" stroke-linejoin="round"/>
<path id="Vector_63" d="M35.4946 41.8912C36.029 41.1702 36.5627 40.4491 37.0971 39.7273" stroke="black" stroke-width="0.69401" stroke-miterlimit="10" stroke-linecap="round" stroke-linejoin="round"/>
<path id="Vector_64" d="M37.6553 41.7718C38.1258 40.9321 38.6852 40.1409 39.3202 39.4177" stroke="black" stroke-width="0.69401" stroke-miterlimit="10" stroke-linecap="round" stroke-linejoin="round"/>
<path id="Vector_65" d="M39.708 41.8523C40.2681 41.1215 40.7886 40.3602 41.2661 39.5725" stroke="black" stroke-width="0.69401" stroke-miterlimit="10" stroke-linecap="round" stroke-linejoin="round"/>
<path id="Vector_66" d="M41.9395 41.83C42.5023 41.0812 43.0644 40.3323 43.6273 39.5835" stroke="black" stroke-width="0.69401" stroke-miterlimit="10" stroke-linecap="round" stroke-linejoin="round"/>
<path id="Vector_67" d="M44.3193 41.777C44.8017 40.99 45.2847 40.203 45.767 39.416" stroke="black" stroke-width="0.69401" stroke-miterlimit="10" stroke-linecap="round" stroke-linejoin="round"/>
<path id="Vector_68" d="M46.1987 41.7849C46.6929 41.034 47.2502 40.3247 47.863 39.6675" stroke="black" stroke-width="0.69401" stroke-miterlimit="10" stroke-linecap="round" stroke-linejoin="round"/>
<path id="Vector_69" d="M48.4316 41.8239C48.9348 41.032 49.5087 40.2853 50.1438 39.5947" stroke="black" stroke-width="0.69401" stroke-miterlimit="10" stroke-linecap="round" stroke-linejoin="round"/>
<path id="Vector_70" d="M50.5522 41.8183C51.2143 41.0937 51.8348 40.331 52.4101 39.5364" stroke="black" stroke-width="0.69401" stroke-miterlimit="10" stroke-linecap="round" stroke-linejoin="round"/>
<path id="Vector_71" d="M53.02 41.8028C53.5669 40.9263 54.2276 40.1213 54.9799 39.4141" stroke="black" stroke-width="0.69401" stroke-miterlimit="10" stroke-linecap="round" stroke-linejoin="round"/>
<path id="Vector_72" d="M55.6553 41.8536C56.148 41.0735 56.6817 40.3198 57.2543 39.5967" stroke="black" stroke-width="0.69401" stroke-miterlimit="10" stroke-linecap="round" stroke-linejoin="round"/>
<path id="Vector_73" d="M57.6226 41.8772C58.1861 41.0673 58.7836 40.2817 59.4124 39.5217" stroke="black" stroke-width="0.69401" stroke-miterlimit="10" stroke-linecap="round" stroke-linejoin="round"/>
<path id="Vector_74" d="M59.9712 41.9238C60.5687 41.1222 61.1656 40.3206 61.7631 39.5183" stroke="black" stroke-width="0.69401" stroke-miterlimit="10" stroke-linecap="round" stroke-linejoin="round"/>
<path id="Vector_75" d="M62.4087 41.8002C62.8827 41.0208 63.4122 40.2755 63.9917 39.571" stroke="black" stroke-width="0.69401" stroke-miterlimit="10" stroke-linecap="round" stroke-linejoin="round"/>
<path id="Vector_76" d="M64.4702 41.7682C64.9997 40.9187 65.6042 40.1158 66.2739 39.3711" stroke="black" stroke-width="0.69401" stroke-miterlimit="10" stroke-linecap="round" stroke-linejoin="round"/>
<path id="Vector_77" d="M66.4214 41.8224C66.9808 40.9896 67.6081 40.2032 68.2966 39.4731" stroke="black" stroke-width="0.69401" stroke-miterlimit="10" stroke-linecap="round" stroke-linejoin="round"/>
<path id="Vector_78" d="M68.4062 41.9161C69.051 41.1007 69.695 40.2852 70.3398 39.4705" stroke="black" stroke-width="0.69401" stroke-miterlimit="10" stroke-linecap="round" stroke-linejoin="round"/>
<path id="Vector_79" d="M70.7754 41.6203C71.2688 40.9451 71.8081 40.3038 72.3883 39.7014" stroke="black" stroke-width="0.69401" stroke-miterlimit="10" stroke-linecap="round" stroke-linejoin="round"/>
<path id="Vector_80" d="M72.8325 41.7113C73.3843 40.9389 73.9748 40.1949 74.6015 39.4822" stroke="black" stroke-width="0.69401" stroke-miterlimit="10" stroke-linecap="round" stroke-linejoin="round"/>
<path id="Vector_81" d="M74.9409 41.5899C75.5315 40.8868 76.1575 40.2136 76.8161 39.5745" stroke="black" stroke-width="0.69401" stroke-miterlimit="10" stroke-linecap="round" stroke-linejoin="round"/>
<path id="Vector_82" d="M77.3188 41.5884C77.8713 40.8035 78.4771 40.0561 79.1302 39.353" stroke="black" stroke-width="0.69401" stroke-miterlimit="10" stroke-linecap="round" stroke-linejoin="round"/>
<path id="Vector_83" d="M39.8447 59.4844V53.9656H47.8626V72.284H39.8447V66.496" stroke="black" stroke-width="0.69401" stroke-miterlimit="10" stroke-linecap="round" stroke-linejoin="round"/>
</g>
<path id="Vector_84" d="M1 82.2075H86.6367" stroke="black" stroke-width="1.38802" stroke-miterlimit="10" stroke-linecap="round" stroke-linejoin="round"/>
</g>
<g id="Group_9">
<g id="Group_10">
<g id="Group_11">
<path id="Vector_85" d="M159.807 73.6164V42.0098H99.7192V73.6164" stroke="black" stroke-width="1.38802" stroke-miterlimit="10" stroke-linecap="round" stroke-linejoin="round"/>
<path id="Vector_86" d="M115.774 77.6589H141.933" stroke="black" stroke-width="1.38802" stroke-miterlimit="10" stroke-linecap="round" stroke-linejoin="round"/>
<path id="Vector_87" d="M166.582 39.2081L154.302 1H106.618L91.7798 39.6071L166.582 39.2081Z" stroke="black" stroke-width="1.38802" stroke-miterlimit="10" stroke-linecap="round" stroke-linejoin="round"/>
<path id="Vector_88" d="M159.807 42.0097H164.181L166.582 39.208" stroke="black" stroke-width="1.38802" stroke-miterlimit="10" stroke-linecap="round" stroke-linejoin="round"/>
<path id="Vector_89" d="M91.7798 39.6072L94.5739 42.0098H99.7193" stroke="black" stroke-width="1.38802" stroke-miterlimit="10" stroke-linecap="round" stroke-linejoin="round"/>
<g id="Group_12">
<path id="Vector_90" d="M130.354 6.13766L147.426 22.5663L142.919 22.5697L130.21 10.4697L116.666 22.4414C115.255 22.5399 111.948 22.5531 111.948 22.5531L130.395 6.13696C130.395 6.13696 130.234 9.28847 130.215 10.571" stroke="black" stroke-width="1.38802" stroke-miterlimit="10" stroke-linecap="round" stroke-linejoin="round"/>
</g>
<path id="Vector_91" d="M119.54 19.9014V31.9522H140.671V20.4295" stroke="black" stroke-width="1.38802" stroke-miterlimit="10" stroke-linecap="round" stroke-linejoin="round"/>
<g id="Group_13">
<path id="Vector_92" d="M135.103 74.2841C135.197 67.2115 135.114 51.7122 135.114 51.7122H123.227C123.227 51.7122 123.308 67.3274 123.215 74.4007" stroke="black" stroke-width="1.38802" stroke-miterlimit="10" stroke-linecap="round" stroke-linejoin="round"/>
<path id="Vector_93" d="M125.88 64.5327C127.046 64.718 127.504 62.695 126.236 62.6353C125.179 62.586 124.74 64.3516 125.88 64.5327Z" stroke="black" stroke-width="1.38802" stroke-miterlimit="10" stroke-linecap="round" stroke-linejoin="round"/>
</g>
<path id="Vector_94" d="M138.22 74.4004H119.486V77.6581H138.22V74.4004Z" stroke="black" stroke-width="1.38802" stroke-miterlimit="10" stroke-linecap="round" stroke-linejoin="round"/>
<path id="Vector_95" d="M115.774 82.2075H141.933V77.6583H115.774V82.2075Z" stroke="black" stroke-width="1.38802" stroke-miterlimit="10" stroke-linecap="round" stroke-linejoin="round"/>
<g id="Group_14">
<path id="Vector_96" d="M124.783 22.5789C124.97 20.6509 126.409 18.9569 128.212 18.2504C129.852 17.6091 131.862 17.7743 133.187 18.9326C134.253 19.8639 134.764 21.3137 134.814 22.7281C134.879 24.5894 134.118 26.5577 132.553 27.5681C129.441 29.5787 124.441 26.1142 124.783 22.5789Z" stroke="black" stroke-width="1.38802" stroke-miterlimit="10" stroke-linecap="round" stroke-linejoin="round"/>
<path id="Vector_97" d="M130.104 18.0193C130.113 21.3054 130.011 24.5923 129.8 27.8721" stroke="black" stroke-width="1.38802" stroke-miterlimit="10" stroke-linecap="round" stroke-linejoin="round"/>
<path id="Vector_98" d="M124.767 22.9072C128.02 22.6254 131.554 22.9523 134.818 23.0196" stroke="black" stroke-width="1.38802" stroke-miterlimit="10" stroke-linecap="round" stroke-linejoin="round"/>
</g>
<g id="Group_15">
<path id="Vector_99" d="M118.16 64.4672L105.078 64.53L105.087 66.3171L118.169 66.2543L118.16 64.4672Z" stroke="black" stroke-width="1.38802" stroke-miterlimit="10" stroke-linecap="round" stroke-linejoin="round"/>
<path id="Vector_100" d="M118.171 48.5258L105.089 48.5886L105.098 50.3757L118.18 50.3129L118.171 48.5258Z" stroke="black" stroke-width="1.38802" stroke-miterlimit="10" stroke-linecap="round" stroke-linejoin="round"/>
<path id="Vector_101" d="M116.679 64.4721C116.738 60.02 116.62 50.3469 116.62 50.3469L106.455 50.3955C106.455 50.3955 106.571 60.0693 106.513 64.5207" stroke="black" stroke-width="1.38802" stroke-miterlimit="10" stroke-linecap="round" stroke-linejoin="round"/>
<path id="Vector_102" d="M106.507 57.1538L116.682 57.1052" stroke="black" stroke-width="1.38802" stroke-miterlimit="10" stroke-linecap="round" stroke-linejoin="round"/>
<path id="Vector_103" d="M111.629 64.4195L111.562 50.4414" stroke="black" stroke-width="1.38802" stroke-miterlimit="10" stroke-linecap="round" stroke-linejoin="round"/>
</g>
<g id="Group_16">
<path id="Vector_104" d="M155.06 64.4501L141.978 64.5796L141.996 66.3667L155.078 66.2372L155.06 64.4501Z" stroke="black" stroke-width="1.38802" stroke-miterlimit="10" stroke-linecap="round" stroke-linejoin="round"/>
<path id="Vector_105" d="M154.987 48.5106L141.905 48.6401L141.923 50.4272L155.005 50.2977L154.987 48.5106Z" stroke="black" stroke-width="1.38802" stroke-miterlimit="10" stroke-linecap="round" stroke-linejoin="round"/>
<path id="Vector_106" d="M153.574 64.4462C153.61 59.9942 153.443 50.321 153.443 50.321L143.277 50.4217C143.277 50.4217 143.443 60.0948 143.407 64.5469" stroke="black" stroke-width="1.38802" stroke-miterlimit="10" stroke-linecap="round" stroke-linejoin="round"/>
<path id="Vector_107" d="M143.364 57.18L153.539 57.0793" stroke="black" stroke-width="1.38802" stroke-miterlimit="10" stroke-linecap="round" stroke-linejoin="round"/>
<path id="Vector_108" d="M148.523 64.4193L148.385 50.4419" stroke="black" stroke-width="1.38802" stroke-miterlimit="10" stroke-linecap="round" stroke-linejoin="round"/>
</g>
<path id="Vector_109" d="M112.741 73.6165H98.579C97.0168 73.6165 95.7495 74.883 95.7495 76.446V82.2083H115.57V76.446C115.57 74.883 114.303 73.6165 112.741 73.6165Z" stroke="black" stroke-width="1.38802" stroke-miterlimit="10" stroke-linecap="round" stroke-linejoin="round"/>
<path id="Vector_110" d="M158.924 73.6165H144.762C143.199 73.6165 141.933 74.883 141.933 76.446V82.2083H161.753V76.446C161.753 74.883 160.486 73.6165 158.924 73.6165Z" stroke="black" stroke-width="1.38802" stroke-miterlimit="10" stroke-linecap="round" stroke-linejoin="round"/>
</g>
<path id="Vector_111" d="M115.019 19.7986C115.323 20.7612 115.744 21.687 116.268 22.5496" stroke="black" stroke-width="0.69401" stroke-miterlimit="10" stroke-linecap="round" stroke-linejoin="round"/>
<path id="Vector_112" d="M116.655 18.3726C116.996 19.4281 117.359 20.4761 117.744 21.5157" stroke="black" stroke-width="0.69401" stroke-miterlimit="10" stroke-linecap="round" stroke-linejoin="round"/>
<path id="Vector_113" d="M118.442 17.2023C118.406 17.1558 118.37 17.11 118.333 17.0635C118.605 18.1864 118.941 19.2933 119.339 20.3781" stroke="black" stroke-width="0.69401" stroke-miterlimit="10" stroke-linecap="round" stroke-linejoin="round"/>
<path id="Vector_114" d="M119.706 15.8755C119.941 16.9797 120.249 18.0678 120.629 19.1304" stroke="black" stroke-width="0.69401" stroke-miterlimit="10" stroke-linecap="round" stroke-linejoin="round"/>
<path id="Vector_115" d="M121.19 14.5701C121.368 15.7242 121.658 16.8603 122.057 17.9582" stroke="black" stroke-width="0.69401" stroke-miterlimit="10" stroke-linecap="round" stroke-linejoin="round"/>
<path id="Vector_116" d="M122.515 13.4187C122.874 14.3979 123.163 15.4022 123.383 16.4217" stroke="black" stroke-width="0.69401" stroke-miterlimit="10" stroke-linecap="round" stroke-linejoin="round"/>
<path id="Vector_117" d="M123.826 12.2854C124.023 13.3424 124.309 14.3827 124.678 15.3925" stroke="black" stroke-width="0.69401" stroke-miterlimit="10" stroke-linecap="round" stroke-linejoin="round"/>
<path id="Vector_118" d="M125.046 10.9492C125.492 11.8584 125.835 12.8175 126.067 13.803" stroke="black" stroke-width="0.69401" stroke-miterlimit="10" stroke-linecap="round" stroke-linejoin="round"/>
<path id="Vector_119" d="M126.605 9.7876C126.921 10.9063 127.275 12.0147 127.666 13.1091" stroke="black" stroke-width="0.69401" stroke-miterlimit="10" stroke-linecap="round" stroke-linejoin="round"/>
<path id="Vector_120" d="M127.962 8.49609C128.082 9.55238 128.352 10.5913 128.762 11.572" stroke="black" stroke-width="0.69401" stroke-miterlimit="10" stroke-linecap="round" stroke-linejoin="round"/>
<path id="Vector_121" d="M130.739 11.014C131.32 10.2249 131.901 9.43509 132.482 8.646" stroke="black" stroke-width="0.69401" stroke-miterlimit="10" stroke-linecap="round" stroke-linejoin="round"/>
<path id="Vector_122" d="M131.882 11.9224C132.463 11.1166 133.074 10.3338 133.715 9.57593" stroke="black" stroke-width="0.69401" stroke-miterlimit="10" stroke-linecap="round" stroke-linejoin="round"/>
<path id="Vector_123" d="M133.214 12.9607C133.78 12.2389 134.346 11.5164 134.911 10.7947" stroke="black" stroke-width="0.69401" stroke-miterlimit="10" stroke-linecap="round" stroke-linejoin="round"/>
<path id="Vector_124" d="M134.204 14.0591C134.764 13.2964 135.324 12.5337 135.884 11.771" stroke="black" stroke-width="0.69401" stroke-miterlimit="10" stroke-linecap="round" stroke-linejoin="round"/>
<path id="Vector_125" d="M135.162 14.9496C135.849 14.2833 136.447 13.5255 136.935 12.7017" stroke="black" stroke-width="0.69401" stroke-miterlimit="10" stroke-linecap="round" stroke-linejoin="round"/>
<path id="Vector_126" d="M136.311 15.9149C136.938 15.2147 137.517 14.4721 138.045 13.6948" stroke="black" stroke-width="0.69401" stroke-miterlimit="10" stroke-linecap="round" stroke-linejoin="round"/>
<path id="Vector_127" d="M137.677 17.3987C138.264 16.6443 138.895 15.9232 139.566 15.2417" stroke="black" stroke-width="0.69401" stroke-miterlimit="10" stroke-linecap="round" stroke-linejoin="round"/>
<path id="Vector_128" d="M138.872 18.4745C139.469 17.7513 140.092 17.0497 140.741 16.3723" stroke="black" stroke-width="0.69401" stroke-miterlimit="10" stroke-linecap="round" stroke-linejoin="round"/>
<path id="Vector_129" d="M140.019 19.4856C140.701 18.7889 141.381 18.0921 142.063 17.3953" stroke="black" stroke-width="0.69401" stroke-miterlimit="10" stroke-linecap="round" stroke-linejoin="round"/>
<path id="Vector_130" d="M141.108 20.7813C141.893 20.104 142.678 19.4266 143.462 18.7493" stroke="black" stroke-width="0.69401" stroke-miterlimit="10" stroke-linecap="round" stroke-linejoin="round"/>
<path id="Vector_131" d="M142.309 21.8911C143.113 21.2929 143.896 20.6655 144.656 20.0117" stroke="black" stroke-width="0.69401" stroke-miterlimit="10" stroke-linecap="round" stroke-linejoin="round"/>
<path id="Vector_132" d="M144.05 22.4587C144.658 21.9951 145.212 21.4572 145.692 20.8611" stroke="black" stroke-width="0.69401" stroke-miterlimit="10" stroke-linecap="round" stroke-linejoin="round"/>
<path id="Vector_133" d="M94.0479 41.6691C94.5441 40.9876 95.0403 40.3068 95.5372 39.6252" stroke="black" stroke-width="0.69401" stroke-miterlimit="10" stroke-linecap="round" stroke-linejoin="round"/>
<path id="Vector_134" d="M95.6387 41.9014C96.2855 41.1574 96.9316 40.4141 97.5784 39.6702" stroke="black" stroke-width="0.69401" stroke-miterlimit="10" stroke-linecap="round" stroke-linejoin="round"/>
<path id="Vector_135" d="M97.855 41.8106C98.3935 41.043 99.0133 40.3323 99.7011 39.6938" stroke="black" stroke-width="0.69401" stroke-miterlimit="10" stroke-linecap="round" stroke-linejoin="round"/>
<path id="Vector_136" d="M99.8647 41.726C100.441 41.0653 101.016 40.4046 101.592 39.7439" stroke="black" stroke-width="0.69401" stroke-miterlimit="10" stroke-linecap="round" stroke-linejoin="round"/>
<path id="Vector_137" d="M101.581 41.9057C102.123 41.1825 102.696 40.483 103.297 39.8091" stroke="black" stroke-width="0.69401" stroke-miterlimit="10" stroke-linecap="round" stroke-linejoin="round"/>
<path id="Vector_138" d="M103.688 41.9113C104.21 41.1576 104.775 40.433 105.379 39.7439" stroke="black" stroke-width="0.69401" stroke-miterlimit="10" stroke-linecap="round" stroke-linejoin="round"/>
<path id="Vector_139" d="M105.308 41.9495C105.856 41.2659 106.361 40.5483 106.82 39.8022" stroke="black" stroke-width="0.69401" stroke-miterlimit="10" stroke-linecap="round" stroke-linejoin="round"/>
<path id="Vector_140" d="M106.794 42.0279C107.509 41.2936 108.168 40.5059 108.765 39.6738" stroke="black" stroke-width="0.69401" stroke-miterlimit="10" stroke-linecap="round" stroke-linejoin="round"/>
<path id="Vector_141" d="M108.771 41.9313C109.42 41.2324 110.016 40.485 110.554 39.698" stroke="black" stroke-width="0.69401" stroke-miterlimit="10" stroke-linecap="round" stroke-linejoin="round"/>
<path id="Vector_142" d="M110.765 41.9542C111.252 41.2546 111.738 40.5558 112.225 39.8562" stroke="black" stroke-width="0.69401" stroke-miterlimit="10" stroke-linecap="round" stroke-linejoin="round"/>
<path id="Vector_143" d="M112.808 41.8841C112.778 41.8751 112.747 41.8661 112.717 41.8571C113.214 41.1332 113.711 40.4094 114.208 39.6848" stroke="black" stroke-width="0.69401" stroke-miterlimit="10" stroke-linecap="round" stroke-linejoin="round"/>
<path id="Vector_144" d="M114.786 41.853C115.215 41.0882 115.719 40.3657 116.29 39.6995" stroke="black" stroke-width="0.69401" stroke-miterlimit="10" stroke-linecap="round" stroke-linejoin="round"/>
<path id="Vector_145" d="M116.664 41.8591C117.16 41.0187 117.747 40.2331 118.416 39.5217" stroke="black" stroke-width="0.69401" stroke-miterlimit="10" stroke-linecap="round" stroke-linejoin="round"/>
<path id="Vector_146" d="M118.832 41.8362C119.381 41.1394 119.93 40.4419 120.479 39.7451" stroke="black" stroke-width="0.69401" stroke-miterlimit="10" stroke-linecap="round" stroke-linejoin="round"/>
<path id="Vector_147" d="M120.858 41.8912C121.392 41.1702 121.926 40.4491 122.46 39.7273" stroke="black" stroke-width="0.69401" stroke-miterlimit="10" stroke-linecap="round" stroke-linejoin="round"/>
<path id="Vector_148" d="M123.019 41.7718C123.489 40.9321 124.048 40.1409 124.683 39.4177" stroke="black" stroke-width="0.69401" stroke-miterlimit="10" stroke-linecap="round" stroke-linejoin="round"/>
<path id="Vector_149" d="M125.071 41.8523C125.631 41.1215 126.152 40.3602 126.629 39.5725" stroke="black" stroke-width="0.69401" stroke-miterlimit="10" stroke-linecap="round" stroke-linejoin="round"/>
<path id="Vector_150" d="M127.303 41.83C127.866 41.0812 128.428 40.3323 128.991 39.5835" stroke="black" stroke-width="0.69401" stroke-miterlimit="10" stroke-linecap="round" stroke-linejoin="round"/>
<path id="Vector_151" d="M129.683 41.777C130.165 40.99 130.648 40.203 131.13 39.416" stroke="black" stroke-width="0.69401" stroke-miterlimit="10" stroke-linecap="round" stroke-linejoin="round"/>
<path id="Vector_152" d="M131.562 41.7849C132.056 41.034 132.613 40.3247 133.226 39.6675" stroke="black" stroke-width="0.69401" stroke-miterlimit="10" stroke-linecap="round" stroke-linejoin="round"/>
<path id="Vector_153" d="M133.795 41.8239C134.298 41.032 134.872 40.2853 135.507 39.5947" stroke="black" stroke-width="0.69401" stroke-miterlimit="10" stroke-linecap="round" stroke-linejoin="round"/>
<path id="Vector_154" d="M135.916 41.8183C136.578 41.0937 137.198 40.331 137.773 39.5364" stroke="black" stroke-width="0.69401" stroke-miterlimit="10" stroke-linecap="round" stroke-linejoin="round"/>
<path id="Vector_155" d="M138.383 41.8028C138.93 40.9263 139.591 40.1213 140.343 39.4141" stroke="black" stroke-width="0.69401" stroke-miterlimit="10" stroke-linecap="round" stroke-linejoin="round"/>
<path id="Vector_156" d="M141.019 41.8536C141.511 41.0735 142.045 40.3198 142.618 39.5967" stroke="black" stroke-width="0.69401" stroke-miterlimit="10" stroke-linecap="round" stroke-linejoin="round"/>
<path id="Vector_157" d="M142.986 41.8772C143.549 41.0673 144.147 40.2817 144.776 39.5217" stroke="black" stroke-width="0.69401" stroke-miterlimit="10" stroke-linecap="round" stroke-linejoin="round"/>
<path id="Vector_158" d="M145.334 41.9238C145.932 41.1222 146.529 40.3206 147.126 39.5183" stroke="black" stroke-width="0.69401" stroke-miterlimit="10" stroke-linecap="round" stroke-linejoin="round"/>
<path id="Vector_159" d="M147.772 41.8002C148.246 41.0208 148.776 40.2755 149.355 39.571" stroke="black" stroke-width="0.69401" stroke-miterlimit="10" stroke-linecap="round" stroke-linejoin="round"/>
<path id="Vector_160" d="M149.833 41.7682C150.363 40.9187 150.968 40.1158 151.637 39.3711" stroke="black" stroke-width="0.69401" stroke-miterlimit="10" stroke-linecap="round" stroke-linejoin="round"/>
<path id="Vector_161" d="M151.785 41.8224C152.344 40.9896 152.971 40.2032 153.66 39.4731" stroke="black" stroke-width="0.69401" stroke-miterlimit="10" stroke-linecap="round" stroke-linejoin="round"/>
<path id="Vector_162" d="M153.77 41.9161C154.414 41.1007 155.058 40.2852 155.703 39.4705" stroke="black" stroke-width="0.69401" stroke-miterlimit="10" stroke-linecap="round" stroke-linejoin="round"/>
<path id="Vector_163" d="M156.139 41.6203C156.632 40.9451 157.171 40.3038 157.752 39.7014" stroke="black" stroke-width="0.69401" stroke-miterlimit="10" stroke-linecap="round" stroke-linejoin="round"/>
<path id="Vector_164" d="M158.196 41.7113C158.748 40.9389 159.338 40.1949 159.965 39.4822" stroke="black" stroke-width="0.69401" stroke-miterlimit="10" stroke-linecap="round" stroke-linejoin="round"/>
<path id="Vector_165" d="M160.304 41.5899C160.895 40.8868 161.521 40.2136 162.179 39.5745" stroke="black" stroke-width="0.69401" stroke-miterlimit="10" stroke-linecap="round" stroke-linejoin="round"/>
<path id="Vector_166" d="M162.682 41.5884C163.235 40.8035 163.84 40.0561 164.493 39.353" stroke="black" stroke-width="0.69401" stroke-miterlimit="10" stroke-linecap="round" stroke-linejoin="round"/>
<path id="Vector_167" d="M125.208 59.4844V53.9656H133.226V72.284H125.208V66.496" stroke="black" stroke-width="0.69401" stroke-miterlimit="10" stroke-linecap="round" stroke-linejoin="round"/>
</g>
<path id="Vector_168" d="M86.3633 82.2075H172" stroke="black" stroke-width="1.38802" stroke-miterlimit="10" stroke-linecap="round" stroke-linejoin="round"/>
</g>
</g>
</svg>
